<svg xmlns="http://www.w3.org/2000/svg" width="1600" height="840" viewBox="0 0 1200 630"><g fill="#273da3"><path d="M0 0h352.01c-3.69 4.23-7.08 8.72-10.68 13.03 5.25 4.41 10.66 8.62 15.88 13.08 7.07-1.38 14.05-3.18 21.08-4.76.18-7.12.37-14.23.56-21.35h7.88c-3.52 6.42-3.5 15.06 1.76 20.55 4.67 4.63 10.11 8.4 15.09 12.68 3.81-4.79 7.87-9.37 11.54-14.26 4-5.51 3.86-13.27.31-18.97h20.84c2.71 5.92 7.91 10.68 14.55 11.52-2.35 4.8-4.78 9.57-7.08 14.4 5.53 4.5 10.42 9.89 16.36 13.83 6.78-.67 13.39-2.57 20.09-3.77-2.07-11.06-4.27-22.1-6.47-33.13-2.35.4-4.7.81-7.04 1.21.8-1.34 1.54-2.72 2.36-4.06h25.26c-.51 6.27-.97 12.55-1.46 18.82 11.38.82 22.76 1.74 34.15 2.58.4-7.13 1.5-14.25 1.23-21.4h81.77c4.32 5.95 8.08 12.3 12.17 18.41C631.36 12.3 640.93 6.7 649.72 0h123.73l-1.59.2c-6.98-.54-14.56 2.1-18.06 8.52-4.76 7.75-1.74 18.81 6.2 23.17 7 4.25 16.89 2.4 21.79-4.19 3.45-3.98 4.12-9.57 3.28-14.61 5.31.66 10.63 1.31 15.96 1.9 2.02-4.98 3.94-9.99 5.9-14.99h87.48c6.78 5.9 13.12 12.29 19.81 18.31C920.17 12.38 925.6 5.93 931.55 0H1200v630H979.52c-5.61-48.36-14.15-96.35-24.2-143.97-1.9-7.96-6.94-15.15-13.69-19.75-7.15-3.87-15.2-5.53-23.06-7.24-1.19-1.72-1.76-3.77-2.5-5.69 6.53-2.34 13.03-5.36 17.9-10.44 8.33-8.41 12.04-20.28 13.01-31.84 1.48-17.79-1.94-35.57-6.56-52.68-3.09-9.93-3.84-20.37-6.39-30.42-3.62-15.36-8.46-31.03-18.48-43.52-3.78-4.75-8.75-8.37-14.13-11.11 2.33-23.74 4.73-47.48 7.08-71.22-2.14-.22-4.27-.43-6.39-.65 1.76-18.85 3.54-37.71 5.35-56.56.41-2.76-.21-6.04-2.99-7.32-2.5-1.63-5.23.04-7.55 1.09.34-4.7 1.76-9.59.5-14.23-1.93-3.96-6.93-3.71-9.99-1.31-1.85-2.58-4.77-5.31-8.2-3.78-3.58 1.22-3.87 5.31-4.19 8.48-2.87-2.97-8.47-3.71-10.53.54-1.73 7.21-1.68 14.73-2.5 22.08-3.39-2.18-8.79-2.57-10.72 1.68-1.74 4.82-5.2 10.7-1.92 15.59 2.82 4.16 6.63 7.53 9.9 11.33-.62 5.98-1.18 11.97-1.72 17.97-2.51-.24-5.01-.48-7.5-.73-.98 9.57-1.92 19.15-2.88 28.72-5.96 2.02-11.96 3.91-17.87 6.05-2.3 6.72-4.69 13.41-6.95 20.14 5.9 3.96 11.8 7.91 17.74 11.82 1.11-.34 2.24-.68 3.38-1.02-.3 2.98-.59 5.97-.88 8.96-10.17 1.58-20.78 4-28.87 10.75-3.79 2.99-6.43 7.11-8.71 11.3.37-13.19.36-26.38.65-39.57 3.29-1.39 6.86-2.76 9.03-5.78 3.45-4.77 4.83-10.9 4.4-16.72-.23-3.37-2.32-6.13-4.12-8.83 1.14-2.65 2.29-5.3 3.17-8.05 5-1.91 10.01-3.8 15.04-5.66-3.3-9.82-7.21-19.42-10.84-29.11.8-3.23 1.49-6.76.18-9.95-1.35-3.33-4.24-5.68-7.11-7.67-10.01-6.78-21.53-10.82-31.83-17.09-4.37-2.56-7.96-6.19-10.88-10.3-3.01-4.41-8.62-5.7-13.64-5.88-10.72-.32-21.2 2.47-31.54 4.95-2.42.76-5.59 1.09-6.75 3.72-.14 2.76 1.95 4.98 3.12 7.32-3.86.24-7.72.41-11.54.98a18.819 18.819 0 0 0-10.23-2.33c3.4-5.82 6.8-11.65 10.02-17.58-6-3.39-11.97-6.83-17.96-10.26-6.6 2.66-13.13 5.51-19.77 8.09.9 7.14 1.88 14.27 2.94 21.38 4.01 2.25 7.99 4.55 11.96 6.88-1.56 3.15-2.24 6.66-2.12 10.16.37 1.81 1.11 3.51 1.78 5.23.11 1.3.61 2.42 1.49 3.34-2.24 2.26-3.77 5.5-2.84 8.71.64 3.56 3.78 5.79 5.37 8.86-.91 5.76-2.3 11.46-2.26 17.34-3.94-.2-7.87-.39-11.8-.57-1.07 9.53 3.75 18.76 11.3 24.38-.23 13.35-.37 26.7-.11 40.04.38 4.19-3.15 7.31-3.44 11.39-1.26 10.8 1.53 22.36 8.81 30.63-.72 4.94-2.41 9.86-1.86 14.9.41 3.9 2.75 7.16 5.08 10.17-2.51.81-5.02 1.58-7.52 2.37-1.43-18.07-3.78-36.54-11.76-53.03-4.26-7.36-10.66-14.01-19.13-16.21-2.17-28.92-4-57.87-6.08-86.79l-7.53.51c-.35-6.01-.77-12.01-1.12-18.01 4.07-4.8 10.22-8.55 11.84-14.95-.52-4.6-1.54-9.45-4.13-13.35-2.46-2.98-6.5-1.78-9.56-.63-.58-6.64-.67-13.32-1.37-19.95-.24-2.73-2.59-5.05-5.33-5.22-2.26-.31-4 1.45-5.78 2.51-.19-3.2-.25-7.45-3.89-8.71-3.28-1.56-6.27.96-8.13 3.42-1.92-.86-3.87-2.31-6.09-1.81-2.28.46-4.51 2.3-4.6 4.77-.35 4.16.28 8.33.65 12.47-2.09-1.28-4.44-2.14-6.92-1.74.77-.41 1.56-.81 2.36-1.2.47-3.9.88-7.79 1.29-11.69-4.85-4.99-10.04-9.62-15.05-14.43-7.84 8.1-15.68 16.21-23.28 24.54 1.6 1.6 3.19 3.21 4.79 4.81-7.81.38-15.01 6.38-16.18 14.2-1.54 8.07 3.62 16.73 11.54 19.01 7.8 2.73 16.98-1.35 20.46-8.76 2.48-4.95 2.04-10.93-.43-15.78l10.7-1.62c.81 11.31 1.52 22.62 2.17 33.94-1.87 3.44-3.25 7.3-2.69 11.28.18 3.59 2.28 6.59 3.97 9.63l.14.34c-2.16.17-4.32.34-6.46.52 1.62 23.2 3.24 46.4 4.81 69.6-4.43 1.33-8.84 2.89-12.77 5.37-6.56 3.92-11.2 10.14-16.53 15.46-5.07 5.65-10.6 11.06-14.36 17.7-3.44 6.35-.31 13.59-.84 20.32-2.4 14.7-7.71 28.69-12.39 42.77-2.92-3.78-5.96-7.7-10.24-10.01-4.97-2.68-10.19-4.84-15.32-7.17-.12-1.32-.24-2.63-.35-3.94 10.04-2.05 20.13-6.15 26.89-14.15 5.48-6.13 7.99-14.38 8.37-22.47.75-15.56.47-31.15.22-46.71 4.38-1 9.02-2.69 11.44-6.76 2.43-3.28 2.38-7.47 2.19-11.35 1.97-2.77 4.17-5.67 4.4-9.2.6-3.67-1.13-7.07-2.65-10.27 1.7-2.39 3.7-4.74 4.33-7.69.72-3.05-.1-6.14-.65-9.13 2.68-2.26 5.67-4.56 6.81-8.03 1.93-4.97.59-10.94-3.17-14.68-2.33-2.45-5.67-3.41-8.73-4.59-.77-3.6-1.69-7.48-4.62-9.98-2.87-2.96-7.04-3.75-10.91-4.43-2.01-2.25-3.97-4.72-6.73-6.07-2.71-1.35-5.81-1.36-8.75-1.66-1.24-2.8-2.38-5.82-4.82-7.81-2.72-2.45-6.44-3.04-9.78-4.19-3.09-.97-6.09-2.65-9.43-2.4-3.07.08-5.86 1.49-8.6 2.71-3.28-1.53-6.74-3.19-10.46-2.66-4.03.15-7.35 2.64-10.35 5.07-2.98-2.58-6.45-5.06-10.57-5.09-3.82-.4-7.46 1.18-10.46 3.42-2.96 2.35-7.1 1.77-10.18 3.87-1.89 1.18-3.69 2.51-5.67 3.52-4.87-9.83-10.12-19.46-14.92-29.34-9.62 4.76-19.04 9.91-28.7 14.6 5.23 10.11 10.37 20.26 15.56 30.38-3.24 3.56-4.27 8.36-3.97 13.06-3.84 1.48-7.85 3.46-9.78 7.32-2.14 3.45-1.78 7.62-1.24 11.47-3.83 3.36-6.96 8.16-6.19 13.49.23 4.32 3.11 7.71 6.18 10.46-1.58 3.84-2.79 8.17-1.12 12.2 1.24 4.18 4.87 6.84 8.5 8.85-.34 4.95-1.66 10.01-.03 14.88-2.25 2.33-4.86 4.58-5.85 7.77-1.93 5.58.09 12.33 4.95 15.74 2.91 2.29 6.69 2.77 10.24 3.29 1.59 3.06 3.34 6.29 6.5 7.99 3.73 2.52 8.38 2.18 12.66 1.95.17 6.11-.04 12.23.39 18.33-3.24-2.36-7.2-3.41-10.46-5.72-1.93-1.49-4.38-1.83-6.71-2.26-1.78-2.82-4.06-5.91-7.7-6.13-3.38-.71-6.24 1.4-8.83 3.22-4.06-1.29-8.27-.56-11.6 2.12-1.81-2.86-3.97-6.1-7.67-6.49-3.45-.84-6.45 1.32-9.19 3.06-3.16-.76-6.38-.56-9.44.47-2.55-17.42-5.34-34.81-8.02-52.22-2.46.38-4.93.76-7.39 1.15-.91-6.02-1.87-12.03-2.61-18.07 3.27-4.14 7.23-7.84 9.68-12.57 1.8-3.2-.04-6.75-1.1-9.86-1.19-2.91-2.3-6.63-5.73-7.54-2.6-.99-4.99.8-7.17 1.94-.95-6.49-1.73-13.01-2.88-19.46-.32-2.66-2.3-5.14-5.08-5.39-2.6-.56-4.53 1.55-6.37 3-.38-3.28-.89-7.58-4.74-8.5-3.44-1.19-6.19 1.56-7.61 4.36-2-.79-4.04-2.35-6.28-1.52-2.19.62-4.13 2.63-4.16 4.98-.03 4.12.92 8.17 1.59 12.22-2.63-.87-5.86-2.19-8.22 0-2.64 1.76-2.28 5.16-1.85 7.87 2.81 18.45 5.51 36.92 8.28 55.38-2.11.28-4.21.55-6.31.83 3.73 26.62 8.29 53.13 12.03 79.75-1.59 2.38-2.72 5.02-3.43 7.79-3.3 1.5-6.96 3.45-7.83 7.32-1.33 3.64.65 7.17 2.63 10.12-1.41 3.07-1.75 6.43-1.47 9.77-3.54 2.61-5.87 6.38-5.91 10.87-3.15 1.79-6.56 4.15-7.06 8.05-.94 3.8 1.47 7.1 3.66 9.91-1.48 4.03-.89 8.27 1.34 11.9-.53 3.09-.81 6.23-.62 9.37-2.52 2.38-5.27 5.15-5.08 8.91-.21 4.07 2.8 7.12 5.87 9.28-.64 4.14.68 8.11 3.58 11.12.28 2.17.26 4.45 1.13 6.51 1.15 2.58 3.79 3.93 5.99 5.47.22 3.69 1.02 7.88 4.49 9.91 3.53 2.64 8.1 1.62 11.85.06 2.84 1.03 5.81 1.59 8.81 1.93-.07 1.15-.15 2.31-.21 3.48-12.17 4.51-23.21 11.87-32.32 21.07-3.22 3.14-5.51 7.61-10.12 8.94-9.07 3.23-16.08 11.41-18.17 20.78-.85 4.07-.82 8.26-.95 12.4-.93 30.68-1.97 61.35-2.88 92.03H0V0m871.01 27.4c-1.11 7.04-1.92 14.12-2.86 21.19 3.23 3.33 6.42 6.7 9.8 9.9-5.98 5.94-6.87 16.37-1.29 22.87 5.86 7.77 18.44 8.38 25.14 1.37 5.94-5.65 6.64-15.72 1.63-22.19-2.65-3.49-6.65-5.81-10.91-6.69 4.7-4.79 9.65-9.33 14.25-14.22-4.79-5.03-9.63-10-14.64-14.8-7.04.89-14.08 1.76-21.12 2.57m-234.2 24.06c1.89 6.75 3.77 13.5 5.72 20.23 6.68 2.7 13.38 5.37 20.05 8.14 4.26-5.88 8.62-11.68 12.9-17.54a772.35 772.35 0 0 1-5.66-20.02c-11.07 2.82-22 6.17-33.01 9.19m148.43.76c-4.64 7.55-1.82 18.27 5.71 22.82 8.06 5.38 20.29 1.86 24.2-7.03 2.42-5.8 4.28-11.82 6.33-17.76-5.52-1.88-10.97-3.96-16.51-5.76-7.3-2.46-16.09.93-19.73 7.73M51 51v51.12c24.93.01 49.86 0 74.79.01 6.8-8.46 13.44-17.06 20.39-25.39.15 8.45.03 16.9.07 25.36 24.91.06 49.83.01 74.75.02V51c-24.92 0-49.84-.01-74.76.01.03 8.57-.04 17.15.04 25.72-6.75-8.64-13.65-17.17-20.51-25.74-24.92.02-49.85.01-74.77.01m650.07 6.9c-5.29 10.1-10.53 20.22-15.83 30.31 9.5 4.92 18.9 10.05 28.5 14.8 5.25-10.12 10.63-20.19 15.82-30.36-9.57-4.77-18.94-9.93-28.49-14.75m-165 16.34c-7.6 5.05-9.48 16.48-4.09 23.79 4.68 7.03 14.93 9.42 22.22 5.14 5.18-2.89 10.19-6.09 15.31-9.09a9890.64 9890.64 0 0 1-17.56-29.37c-5.32 3.13-10.69 6.2-15.88 9.53M344.26 91.07c.08 7.75 6.14 14.89 13.81 16.13 7.05 1.52 14.45-2.27 18.02-8.39 3.05 5.96 5.72 12.11 8.54 18.18 6.37-2.73 12.61-5.77 18.91-8.67 1.64-6.92 3.15-13.87 4.79-20.78-6.08-3.55-12.62-6.26-18.62-9.96-4.45 1.71-8.72 3.85-13.05 5.83-3.23-6.83-11.18-11.11-18.66-9.52-7.94 1.39-14.17 9.1-13.74 17.18m454.41-6.24c-2.31 6.55-4.83 13.04-6.81 19.71 10.58 3.71 21.16 7.41 31.73 11.16 2.5-6.51 4.73-13.12 6.98-19.72-3.98-5.89-7.73-11.93-11.62-17.88-6.77 2.23-13.51 4.53-20.28 6.73m-347.93 18.24c2.28 6.81 4.44 13.65 6.69 20.47 6.61 2.4 13.25 4.73 19.89 7.05 3.69-10.82 7.77-21.5 11.27-32.38-6.6-2.24-13.13-4.65-19.72-6.86-6.04 3.91-12.13 7.75-18.13 11.72Z"/><path d="M71.42 67.18c5.04-3.75 12.37-2.96 17.11.93-1.29 1.63-2.58 3.24-3.87 4.87-2.43-1.57-5.51-3.37-8.38-1.77-3.89 2.19-3.96 8.44-.17 10.76 2.39.95 6.78 1.39 6.95-2.19-1.69-.02-3.37-.03-5.06-.03v-5.5h11c.01 3.55.01 7.1-.05 10.65-4.89 3.57-12.01 5.09-17.27 1.43-6.39-4.2-6.41-14.72-.26-19.15ZM100.33 65.45c6.9-2.69 15.64 1.86 16.58 9.39 1.55 7.74-6.1 15.03-13.74 13.63-5.81-.54-10.55-5.69-10.66-11.51-.27-5 3.06-9.95 7.82-11.51m1.9 5.84c-3.73 1.86-4.21 7.72-.86 10.18 3.11 2.68 8.64.67 9.08-3.5 1.33-4.61-4.04-8.84-8.22-6.68ZM169.89 64.76c2.07-.01 4.15-.01 6.22-.01.01 7.67.03 15.33-.01 23h-6.24c.04-7.66-.01-15.33.03-22.99ZM182 64.75h19.24c0 1.96.01 3.92.02 5.87h-6.52c.02 5.71 0 11.41.01 17.12-2.07.01-4.15.02-6.21.04-.08-5.72-.01-11.43-.08-17.14-2.15-.01-4.3-.02-6.45-.02-.01-1.95-.01-3.91-.01-5.87Z"/></g><g fill="#aa9985"><path d="M352.01 0h26.84c-.19 7.12-.38 14.23-.56 21.35-7.03 1.58-14.01 3.38-21.08 4.76-5.22-4.46-10.63-8.67-15.88-13.08 3.6-4.31 6.99-8.8 10.68-13.03ZM798.67 84.83c6.77-2.2 13.51-4.5 20.28-6.73 3.89 5.95 7.64 11.99 11.62 17.88-2.25 6.6-4.48 13.21-6.98 19.72-10.57-3.75-21.15-7.45-31.73-11.16 1.98-6.67 4.5-13.16 6.81-19.71ZM405.43 424.07c2.96-1.48.04 3.36 0 0Z"/></g><g fill="#c71561"><path d="M386.73 0h28.7c3.55 5.7 3.69 13.46-.31 18.97-3.67 4.89-7.73 9.47-11.54 14.26-4.98-4.28-10.42-8.05-15.09-12.68-5.26-5.49-5.28-14.13-1.76-20.55ZM785.24 52.22c3.64-6.8 12.43-10.19 19.73-7.73 5.54 1.8 10.99 3.88 16.51 5.76-2.05 5.94-3.91 11.96-6.33 17.76-3.91 8.89-16.14 12.41-24.2 7.03-7.53-4.55-10.35-15.27-5.71-22.82ZM600.63 164.81c.51 6.96.99 13.93 1.28 20.91-1.69-3.04-3.79-6.04-3.97-9.63-.56-3.98.82-7.84 2.69-11.28Z"/></g><g fill="#f90"><path d="M436.27 0h32.77c-.82 1.34-1.56 2.72-2.36 4.06-3.45 5.18-9.73 7.83-15.86 7.46-6.64-.84-11.84-5.6-14.55-11.52ZM753.8 8.72C757.3 2.3 764.88-.34 771.86.2c6.11 2.01 11.46 6.53 13.21 12.89.84 5.04.17 10.63-3.28 14.61-4.9 6.59-14.79 8.44-21.79 4.19-7.94-4.36-10.96-15.42-6.2-23.17ZM556.19 138.02c1.17-7.82 8.37-13.82 16.18-14.2 6.22.04 12.22 3.28 15.39 8.67 2.47 4.85 2.91 10.83.43 15.78-3.48 7.41-12.66 11.49-20.46 8.76-7.92-2.28-13.08-10.94-11.54-19.01Z"/></g><g fill="#cf0"><path d="M494.3 0h33.92c.27 7.15-.83 14.27-1.23 21.4-11.39-.84-22.77-1.76-34.15-2.58.49-6.27.95-12.55 1.46-18.82ZM536.07 74.24c5.19-3.33 10.56-6.4 15.88-9.53 5.83 9.8 11.69 19.58 17.56 29.37-5.12 3-10.13 6.2-15.31 9.09-7.29 4.28-17.54 1.89-22.22-5.14-5.39-7.31-3.51-18.74 4.09-23.79ZM695.49 311.07c7.61 8.41 19.56 9.62 30.23 9.08.01 1.59.03 3.18.07 4.78-8.47 4.97-17.86 8.01-27.08 11.21-2.33-3.01-4.67-6.27-5.08-10.17-.55-5.04 1.14-9.96 1.86-14.9Z"/></g><g fill="#76adff"><path d="M609.99 0h39.73c-8.79 6.7-18.36 12.3-27.56 18.41-4.09-6.11-7.85-12.46-12.17-18.41ZM894.41 0h37.14c-5.95 5.93-11.38 12.38-17.33 18.31C907.53 12.29 901.19 5.9 894.41 0ZM701.07 57.9c9.55 4.82 18.92 9.98 28.49 14.75-5.19 10.17-10.57 20.24-15.82 30.36-9.6-4.75-19-9.88-28.5-14.8 5.3-10.09 10.54-20.21 15.83-30.31ZM402.1 131.21c9.66-4.69 19.08-9.84 28.7-14.6 4.8 9.88 10.05 19.51 14.92 29.34-2.38 1.12-4.52 2.64-6.71 4.08-2.6 1.23-5.69 1.2-8.14 2.81-2.49 1.49-4.11 4.2-6.91 5.21-2.24.91-4.41 2.02-6.3 3.54-5.19-10.12-10.33-20.27-15.56-30.38ZM822.34 179.3c3.63 9.69 7.54 19.29 10.84 29.11-5.03 1.86-10.04 3.75-15.04 5.66 2.42-9.93 7.14-20.64 2.99-30.76.4-1.34.8-2.67 1.21-4.01Z"/></g><g fill="#496df9"><path d="M773.45 0h33.48c-1.96 5-3.88 10.01-5.9 14.99-5.33-.59-10.65-1.24-15.96-1.9-1.75-6.36-7.1-10.88-13.21-12.89l1.59-.2ZM466.68 4.06c2.34-.4 4.69-.81 7.04-1.21 2.2 11.03 4.4 22.07 6.47 33.13-6.7 1.2-13.31 3.1-20.09 3.77-5.94-3.94-10.83-9.33-16.36-13.83 2.3-4.83 4.73-9.6 7.08-14.4 6.13.37 12.41-2.28 15.86-7.46ZM567.58 119.01c7.6-8.33 15.44-16.44 23.28-24.54 5.01 4.81 10.2 9.44 15.05 14.43-.41 3.9-.82 7.79-1.29 11.69-.8.39-1.59.79-2.36 1.2-3.81 1.36-4.36 5.61-3.8 9.08l-10.7 1.62c-3.17-5.39-9.17-8.63-15.39-8.67-1.6-1.6-3.19-3.21-4.79-4.81Z"/></g><g fill="#1da551"><path d="M871.01 27.4c7.04-.81 14.08-1.68 21.12-2.57 5.01 4.8 9.85 9.77 14.64 14.8-4.6 4.89-9.55 9.43-14.25 14.22-5.29-.64-10.63 1.08-14.57 4.64-3.38-3.2-6.57-6.57-9.8-9.9.94-7.07 1.75-14.15 2.86-21.19ZM376.66 83.41c4.33-1.98 8.6-4.12 13.05-5.83 6 3.7 12.54 6.41 18.62 9.96-1.64 6.91-3.15 13.86-4.79 20.78-6.3 2.9-12.54 5.94-18.91 8.67-2.82-6.07-5.49-12.22-8.54-18.18 2.48-4.75 2.69-10.48.57-15.4ZM674.41 123.3c6.64-2.58 13.17-5.43 19.77-8.09 5.99 3.43 11.96 6.87 17.96 10.26-3.22 5.93-6.62 11.76-10.02 17.58-5.23.96-10.01 3.94-12.81 8.51-3.97-2.33-7.95-4.63-11.96-6.88-1.06-7.11-2.04-14.24-2.94-21.38ZM829.3 231.07c5.91-2.14 11.91-4.03 17.87-6.05-1.24 12.33-2.47 24.66-3.7 36.99-1.14.34-2.27.68-3.38 1.02-5.94-3.91-11.84-7.86-17.74-11.82 2.26-6.73 4.65-13.42 6.95-20.14ZM774.77 430.68c4.2-3.73 10.38-3.33 15.43-1.84-3.53.78-7.53.72-10.05 3.72-1.19-.06-2.8-.88-3.61.43-1.2 2.03 1.57 2.41 2.87 2.79 2.91 5.43 9.26 6.91 14.7 8.5-1.41 1.8-2.81 3.89-5.15 4.51-4.82 1.48-9.5-1.1-13.78-2.99-1.07-.65-2.29-.27-3.39 0-5.22 1.37-10.38 2.97-15.54 4.51-2.59 1.04-5.5-.45-7.13-2.47-1.67-2.36-.82-5.33-.3-7.91 7.28-2.44 15.05-5.02 22.79-3.15.67-2.2 1.21-4.64 3.16-6.1Z"/><path d="M736.9 445.87c2.76-2.18 6.2-3.27 9.32-4.84-.89 4.37.78 8.8 4.76 10.98-2.92 1.01-5.84 2.01-8.77 2.97-2.67-2.09-7.58-5.2-5.31-9.11ZM710.61 466.56c6.14-8.12 14.61-14.12 23.26-19.32.67 3.68 3.24 6.43 6.08 8.65-7.57 3.11-15.34 6.23-21.81 11.36-2.77 2.08-4.71 5.13-5.08 8.62-1.58-2.76-5.53-6.19-2.45-9.31ZM815.99 460.54c3.92-.22 7.71-1.35 11.48-2.4-.38 9.54-2.64 20.18 2.59 28.83 5.24 7.62 15.44 8.53 23.91 8.66 13.19-.19 27.7-.64 38.69-8.89 8.59-6.49 11.52-17.49 12.94-27.65 8 1.08 15.91 2.77 23.88 4.15-2.23 1.16-4.83 1.92-6.49 3.89-2.01 3.97-1.91 8.59-2.23 12.93-.64 16.29.21 32.61.82 48.9 1.43 33.68 3.24 67.34 4.28 101.04H777.14c-.4-27.72.07-55.49 2.25-83.14 1.77-20.04 4.08-40.24 10.28-59.46 3.12-9.12 7.2-18.68 15.28-24.49 3.12-2.51 7.3-2.06 11.04-2.37m-19.15 75.35c-6 12.06-1.84 28.29 9.8 35.35 11.12 6.19 22.82 12.72 30.01 23.61 5.82-5.33 13.18-8.83 20.88-10.47 9.35-1.91 18.13-6.36 25.39-12.54 3.97-3.48 7.48-7.93 8.51-13.22 1.12-9.15-3.82-18.99-12.41-22.76-11.04-4.95-23.93-3.32-34.91.97-6.46-8.12-15.87-16.49-27.04-14.99-8.63.6-16.66 6.18-20.23 14.05Z"/><path d="M924.59 468.41c3.05-3.26 8.22-3.83 12.26-2.24 5.9 2.21 10.33 7.16 13.43 12.49 3.61 6.18 4.08 13.49 5.65 20.33 8.98 43.35 16.42 87.04 21.59 131.01h-49.64c-1.05-33.67-2.85-67.3-4.29-100.95-.58-16-1.42-32.01-.87-48.02.27-4.24.18-8.66 1.87-12.62ZM787.14 474.25c2.88-2.68 6.2-4.85 9.77-6.51-9.02 13.42-12.58 29.55-15.41 45.23-3.87 22.8-5.24 45.95-6.01 69.04-.2 3.35.12 6.76-.48 10.07-1.61 3.56-4.3 6.48-6.13 9.92-2.01 3.47-2.34 7.69-4.7 10.99-4.56 6.56-11.97 11.9-20.24 11.63-6.71.02-12.77-3.49-17.63-7.85-16.05-12.17-31.87-24.71-46.38-38.71-11.77-11.05-22.49-23.29-31.15-36.95 5.28 2.07 11.3-.38 15.13-4.2 6.01-6.27 8.07-15.24 8.47-23.67-1.81-1.86-3.54-3.79-5.21-5.77 14.4 3.98 26.83 12.75 38.45 21.84 11.39 9.11 22 19.18 31.99 29.81 8.19-19.69 17.02-39.19 28.11-57.45 6.14-9.84 12.74-19.61 21.42-27.42Z"/><path d="M715.93 480.18c10.85 6.82 24.11 6.84 36.37 8.53 3.22 1.42 1.94 5.11-.16 6.92-10.81-1.21-21.65-2.74-32.05-6.04-1.19-3.22-2.56-6.38-4.16-9.41ZM755.68 488.45c3.67.14 8.11 1.62 9.19 5.57-.53.92-1.11 1.81-1.74 2.66-2.72-.32-5.43-.55-8.14-.74 1.06-2.39 1.65-4.95.69-7.49ZM763.65 488.84c2.44.35 4.89.67 7.34.99-1.66 2.54-3.36 5.06-4.97 7.63 1.42-3.27.27-6.45-2.37-8.62ZM809.1 540.31c9.2 1.34 18.4 2.72 27.6 4.12 1.46 3.13 2.94 6.25 4.42 9.38-2.32 2.54-4.63 5.09-6.98 7.61-9.19-1.37-18.38-2.72-27.55-4.14.81-5.66 1.69-11.31 2.51-16.97m3.7 14.96c2.81 2.73 7.04 2.02 10.27.49 2.22 2.29 5.42 4.2 8.69 2.84 4.83-1.41 6.29-8.57 2.32-11.69-2.68-2.61-6.84-2.25-9.7-.15-2.1-2.28-5.05-4.22-8.3-3.32-5.12 1.03-7.16 8.32-3.28 11.83ZM735.23 546.03c.26-2.2 2.7-2.73 4.44-3.35.16 1.7.34 3.4.54 5.11-.55 1.22-1.1 2.43-1.64 3.66-1.45-1.55-4.24-2.87-3.34-5.42ZM847.55 546c8.87 1.21 17.72 2.64 26.59 3.94-.9 5.65-1.68 11.33-2.56 16.99-8.84-1.35-17.69-2.64-26.53-4 .84-5.64 1.75-11.28 2.5-16.93m5.66 3.26c-2.3 2.92-1.66 7.34-2.4 10.89-.36 2.66 3.23 2.63 5.04 2.74 2.15-1.74 1.42-5.18 2.92-7.44-.03 2.48-.26 4.96-.53 7.43 1.78.5 3.62 1.42 5.52.91 1.64-1.5 1.21-4.01 1.74-5.98 2.99-.55 3.4-3.43 3.69-5.95-5.13-1.69-10.62-2.49-15.98-2.6Z"/></g><g fill="#e23c2c"><path d="M636.81 51.46c11.01-3.02 21.94-6.37 33.01-9.19 1.79 6.7 3.69 13.37 5.66 20.02-4.28 5.86-8.64 11.66-12.9 17.54-6.67-2.77-13.37-5.44-20.05-8.14-1.95-6.73-3.83-13.48-5.72-20.23ZM450.74 103.07c6-3.97 12.09-7.81 18.13-11.72 6.59 2.21 13.12 4.62 19.72 6.86-3.5 10.88-7.58 21.56-11.27 32.38-6.64-2.32-13.28-4.65-19.89-7.05-2.25-6.82-4.41-13.66-6.69-20.47Z"/></g><g fill="#fff"><path d="M51 51c24.92 0 49.85.01 74.77-.01 6.86 8.57 13.76 17.1 20.51 25.74-.08-8.57-.01-17.15-.04-25.72 24.92-.02 49.84-.01 74.76-.01v51.12c-24.92-.01-49.84.04-74.75-.02-.04-8.46.08-16.91-.07-25.36-6.95 8.33-13.59 16.93-20.39 25.39-24.93-.01-49.86 0-74.79-.01V51m20.42 16.18c-6.15 4.43-6.13 14.95.26 19.15 5.26 3.66 12.38 2.14 17.27-1.43.06-3.55.06-7.1.05-10.65H78v5.5c1.69 0 3.37.01 5.06.03-.17 3.58-4.56 3.14-6.95 2.19-3.79-2.32-3.72-8.57.17-10.76 2.87-1.6 5.95.2 8.38 1.77 1.29-1.63 2.58-3.24 3.87-4.87-4.74-3.89-12.07-4.68-17.11-.93m28.91-1.73c-4.76 1.56-8.09 6.51-7.82 11.51.11 5.82 4.85 10.97 10.66 11.51 7.64 1.4 15.29-5.89 13.74-13.63-.94-7.53-9.68-12.08-16.58-9.39m69.56-.69c-.04 7.66.01 15.33-.03 22.99h6.24c.04-7.67.02-15.33.01-23-2.07 0-4.15 0-6.22.01m12.11-.01c0 1.96 0 3.92.01 5.87 2.15 0 4.3.01 6.45.02.07 5.71 0 11.42.08 17.14 2.06-.02 4.14-.03 6.21-.04-.01-5.71.01-11.41-.01-17.12h6.52c-.01-1.95-.02-3.91-.02-5.87H182Z"/><path d="M102.23 71.29c4.18-2.16 9.55 2.07 8.22 6.68-.44 4.17-5.97 6.18-9.08 3.5-3.35-2.46-2.87-8.32.86-10.18ZM691 207.97c2.55.16 5.11.29 7.67.41-4.16 4.67-8.46 9.2-12.76 13.74a133.82 133.82 0 0 1-3.21-5.25c2.81-2.93 5.4-6.05 8.3-8.9ZM705.15 210.03c1.02-1.7 3.06-1.05 4.72-1.18-5.8 6.22-11.61 12.44-17.41 18.67-.62-.3-1.86-.91-2.48-1.21 5.04-5.44 10.14-10.82 15.17-16.28ZM734.83 219.33c2.73-2.91 5.59-5.7 8.21-8.7 2.63.12 5.26.26 7.9.4-4.33 4.57-8.64 9.16-12.88 13.81-1.14-1.8-2.21-3.64-3.23-5.51ZM742.1 229.02c5.39-5.88 10.83-11.72 16.32-17.53.86.01 2.58.02 3.44.03-5.78 6.24-11.42 12.65-17.5 18.6-.56-.27-1.7-.82-2.26-1.1ZM530.43 294.17c1.41-.58 2.83-1.15 4.26-1.7.54 1.22 1.09 2.45 1.64 3.69-1.28.78-2.56 1.56-3.82 2.36-.7-1.46-1.38-2.91-2.08-4.35ZM538.09 294.6c-3.25-1.31.81-4.53 2.02-1.64-.09 1.21-.76 1.76-2.02 1.64ZM499.34 292.87c3.05-.6 6.08.07 8.98 1.01-.34 1.82-.67 3.63-1 5.45-2.96-1.76-5.71-3.87-7.98-6.46ZM510.25 294.62c1.55.56 3.1 1.14 4.65 1.73-.06 1.74-.14 3.48-.21 5.22-1.83-.48-3.65-.97-5.46-1.49.36-1.81.69-3.64 1.02-5.46ZM523.54 296.75c1.74-.54 3.49-1.11 5.23-1.69.64 1.48 1.28 2.97 1.93 4.46-1.92.71-3.85 1.39-5.79 2.03-.46-1.6-.92-3.21-1.37-4.8ZM539.53 298.92c-1.62-.22-.66-3.64.82-2.8.43 1.15.16 2.08-.82 2.8ZM498.69 295.59c2.47 1.97 5.02 3.88 7.75 5.49-.68.96-1.36 1.92-2.05 2.87-2.51-2.33-4.55-5.11-5.7-8.36ZM516.71 301.78c.06-1.66.14-3.31.2-4.96 1.55.14 3.12.29 4.69.42.42 1.49.85 3 1.26 4.51-2.05.08-4.1.09-6.15.03ZM533.18 300.32c1.25-.72 2.5-1.43 3.76-2.14.28 1.21.57 2.41.89 3.63-1.36 1.19-2.73 2.36-4.12 3.5-.2-1.67-.37-3.33-.53-4.99ZM508.29 301.9c2.07.66 4.18 1.21 6.31 1.73-.49 1.69-.98 3.38-1.49 5.06-2.51-.83-4.87-2.05-7.13-3.42.76-1.13 1.53-2.25 2.31-3.37ZM525.2 303.49c2.06-.64 4.12-1.33 6.18-2.03.09 1.71.19 3.42.24 5.13-2.27.79-4.54 1.55-6.83 2.24.14-1.78.28-3.56.41-5.34ZM516.54 303.8c2.22.05 4.44.04 6.67-.02-.17 1.8-.33 3.6-.51 5.4-2.53.21-5.07.19-7.59.08.49-1.82.99-3.63 1.43-5.46ZM818.39 391.48c7.64-.39 15.38-.24 22.96.9-6.83 2.34-14.12 2.5-21.26 2.52-.58-1.15-1.15-2.29-1.7-3.42ZM411.19 444.16c.74-.67 1.45-1.37 2.14-2.1.16.7.49 2.1.65 2.8-.7-.17-2.09-.53-2.79-.7ZM415.74 442.56c.48.07 1.43.22 1.91.3-.02.38-.05 1.13-.06 1.51-.47.08-1.39.25-1.86.33 0-.53.01-1.61.01-2.14ZM407.3 444.83c1.02-1.19 3.06.47 2.25 1.75-1.02 1.17-3.09-.48-2.25-1.75ZM420.16 445.13c3.33.02-1.46 2.96 0 0ZM410.99 446.53c.97-.88 3.46.15 2.77 1.58-1 .85-3.53-.13-2.77-1.58ZM415.6 448.14c-.69-1.38 1.65-2.6 2.62-1.6.8 1.42-1.64 2.56-2.62 1.6Z"/></g><g fill="#9c70e3"><path d="M877.95 58.49c3.94-3.56 9.28-5.28 14.57-4.64 4.26.88 8.26 3.2 10.91 6.69 5.01 6.47 4.31 16.54-1.63 22.19-6.7 7.01-19.28 6.4-25.14-1.37-5.58-6.5-4.69-16.93 1.29-22.87ZM344.26 91.07c-.43-8.08 5.8-15.79 13.74-17.18 7.48-1.59 15.43 2.69 18.66 9.52 2.12 4.92 1.91 10.65-.57 15.4-3.57 6.12-10.97 9.91-18.02 8.39-7.67-1.24-13.73-8.38-13.81-16.13ZM689.31 151.56c2.8-4.57 7.58-7.55 12.81-8.51 3.57-.2 7.1.59 10.23 2.33-7.48 2.03-13.76 6.68-20.14 10.86-2.17 1.32-3.86 3.25-5.02 5.48-.12-3.5.56-7.01 2.12-10.16Z"/></g><g fill="#010101"><path d="M619.22 108.1c1.86-2.46 4.85-4.98 8.13-3.42 3.64 1.26 3.7 5.51 3.89 8.71 1.78-1.06 3.52-2.82 5.78-2.51 2.74.17 5.09 2.49 5.33 5.22.7 6.63.79 13.31 1.37 19.95 3.06-1.15 7.1-2.35 9.56.63 2.59 3.9 3.61 8.75 4.13 13.35-1.62 6.4-7.77 10.15-11.84 14.95.35 6 .77 12 1.12 18.01l7.53-.51c2.08 28.92 3.91 57.87 6.08 86.79 8.47 2.2 14.87 8.85 19.13 16.21 7.98 16.49 10.33 34.96 11.76 53.03 2.5-.79 5.01-1.56 7.52-2.37 9.22-3.2 18.61-6.24 27.08-11.21-.04-1.6-.06-3.19-.07-4.78-10.67.54-22.62-.67-30.23-9.08-7.28-8.27-10.07-19.83-8.81-30.63.29-4.08 3.82-7.2 3.44-11.39-.26-13.34-.12-26.69.11-40.04-7.55-5.62-12.37-14.85-11.3-24.38 3.93.18 7.86.37 11.8.57-.04-5.88 1.35-11.58 2.26-17.34-1.59-3.07-4.73-5.3-5.37-8.86-.93-3.21.6-6.45 2.84-8.71 1.77-1.25 0-3.02-1.49-3.34-.67-1.72-1.41-3.42-1.78-5.23 1.16-2.23 2.85-4.16 5.02-5.48 6.38-4.18 12.66-8.83 20.14-10.86 3.82-.57 7.68-.74 11.54-.98-1.17-2.34-3.26-4.56-3.12-7.32 1.16-2.63 4.33-2.96 6.75-3.72 10.34-2.48 20.82-5.27 31.54-4.95 5.02.18 10.63 1.47 13.64 5.88 2.92 4.11 6.51 7.74 10.88 10.3 10.3 6.27 21.82 10.31 31.83 17.09 2.87 1.99 5.76 4.34 7.11 7.67 1.31 3.19.62 6.72-.18 9.95-.41 1.34-.81 2.67-1.21 4.01 4.15 10.12-.57 20.83-2.99 30.76-.88 2.75-2.03 5.4-3.17 8.05 1.8 2.7 3.89 5.46 4.12 8.83.43 5.82-.95 11.95-4.4 16.72-2.17 3.02-5.74 4.39-9.03 5.78-.29 13.19-.28 26.38-.65 39.57 2.28-4.19 4.92-8.31 8.71-11.3 8.09-6.75 18.7-9.17 28.87-10.75.29-2.99.58-5.98.88-8.96 1.23-12.33 2.46-24.66 3.7-36.99.96-9.57 1.9-19.15 2.88-28.72 2.49.25 4.99.49 7.5.73.54-6 1.1-11.99 1.72-17.97-3.27-3.8-7.08-7.17-9.9-11.33-3.28-4.89.18-10.77 1.92-15.59 1.93-4.25 7.33-3.86 10.72-1.68.82-7.35.77-14.87 2.5-22.08 2.06-4.25 7.66-3.51 10.53-.54.32-3.17.61-7.26 4.19-8.48 3.43-1.53 6.35 1.2 8.2 3.78 3.06-2.4 8.06-2.65 9.99 1.31 1.26 4.64-.16 9.53-.5 14.23 2.32-1.05 5.05-2.72 7.55-1.09 2.78 1.28 3.4 4.56 2.99 7.32-1.81 18.85-3.59 37.71-5.35 56.56 2.12.22 4.25.43 6.39.65-2.35 23.74-4.75 47.48-7.08 71.22 5.38 2.74 10.35 6.36 14.13 11.11 10.02 12.49 14.86 28.16 18.48 43.52 2.55 10.05 3.3 20.49 6.39 30.42 4.62 17.11 8.04 34.89 6.56 52.68-.97 11.56-4.68 23.43-13.01 31.84-4.87 5.08-11.37 8.1-17.9 10.44.74 1.92 1.31 3.97 2.5 5.69 7.86 1.71 15.91 3.37 23.06 7.24 6.75 4.6 11.79 11.79 13.69 19.75 10.05 47.62 18.59 95.61 24.2 143.97h-2c-5.17-43.97-12.61-87.66-21.59-131.01-1.57-6.84-2.04-14.15-5.65-20.33-3.1-5.33-7.53-10.28-13.43-12.49-4.04-1.59-9.21-1.02-12.26 2.24-1.69 3.96-1.6 8.38-1.87 12.62-.55 16.01.29 32.02.87 48.02 1.44 33.65 3.24 67.28 4.29 100.95h-2.02c-1.04-33.7-2.85-67.36-4.28-101.04-.61-16.29-1.46-32.61-.82-48.9.32-4.34.22-8.96 2.23-12.93 1.66-1.97 4.26-2.73 6.49-3.89-7.97-1.38-15.88-3.07-23.88-4.15-1.42 10.16-4.35 21.16-12.94 27.65-10.99 8.25-25.5 8.7-38.69 8.89-8.47-.13-18.67-1.04-23.91-8.66-5.23-8.65-2.97-19.29-2.59-28.83-3.77 1.05-7.56 2.18-11.48 2.4-3.74.31-7.92-.14-11.04 2.37-8.08 5.81-12.16 15.37-15.28 24.49-6.2 19.22-8.51 39.42-10.28 59.46-2.18 27.65-2.65 55.42-2.25 83.14h-40.7c-.21-1.59-.41-3.17-.6-4.74-6.15-2.44-10.83-7.2-16.11-11-12.07-9.16-23.82-18.75-35.02-28.95.71 14.89 1.21 29.79 1.69 44.69h-1.99c-.54-15.52-1.02-31.04-1.8-46.54-12.13-11.63-24.16-23.64-33.2-37.91-3.89-5.66-5.74-12.6-10.8-17.45-13.15-.83-24.3-9.53-31.91-19.75-2.34-3.35-5.09-6.99-4.91-11.28.23-3.6 4.4-3.99 7.05-4.93-5.43.32-11.27.81-16.24-1.86-3.84-1.86-6.6-5.21-9.05-8.6-2.36 5.8-6.44 11.14-12.4 13.54-4.75 2.23-10.11 2.34-15.25 2.24-4.72 44.01-4.11 88.35-5.4 132.54h-2.01c1.06-39.83.98-79.73 4.05-119.48-7.35 39.82-13.82 79.82-22.04 119.48h-2.06c2.5-11.29 4.5-22.68 6.65-34.03-10.08.22-20.43 2.7-30.3-.43-.36.45-1.07 1.34-1.43 1.78-17.22-8.53-34.71-16.51-51.98-24.95-1.29 19.21-2.59 38.42-3.88 57.63h-2c1.47-23 3.19-45.99 4.56-68.99 1.18-29.14-13.63-58.12-37.69-74.51.04 5.25.16 10.49.13 15.75-24.74 13.48-56.77 12.81-80.55-2.45-.91-7.61-.31-15.35-.62-23.01-14.08 5.38-26.55 14.59-36.26 26.08 6.29-.44 12.82.36 18.34 3.59 9.45 5.14 15.53 15.8 15.09 26.56-.99 32.33-2.07 64.65-3.04 96.98h-2.01c.9-29.99 1.88-59.98 2.83-89.97.24-5.92.72-12.09-1.58-17.71-3.1-8.03-10.18-14.51-18.56-16.64-7.14-1.92-15.05-.79-21.32 3.15-7.79 4.59-12.8 13.38-13.04 22.39-1.06 32.93-2.09 65.85-3.12 98.78h-2c.91-30.68 1.95-61.35 2.88-92.03.13-4.14.1-8.33.95-12.4 2.09-9.37 9.1-17.55 18.17-20.78 4.61-1.33 6.9-5.8 10.12-8.94 9.11-9.2 20.15-16.56 32.32-21.07.06-1.17.14-2.33.21-3.48-3-.34-5.97-.9-8.81-1.93-3.75 1.56-8.32 2.58-11.85-.06-3.47-2.03-4.27-6.22-4.49-9.91-2.2-1.54-4.84-2.89-5.99-5.47-.87-2.06-.85-4.34-1.13-6.51-2.9-3.01-4.22-6.98-3.58-11.12-3.07-2.16-6.08-5.21-5.87-9.28-.19-3.76 2.56-6.53 5.08-8.91-.19-3.14.09-6.28.62-9.37-2.23-3.63-2.82-7.87-1.34-11.9-2.19-2.81-4.6-6.11-3.66-9.91.5-3.9 3.91-6.26 7.06-8.05.04-4.49 2.37-8.26 5.91-10.87-.28-3.34.06-6.7 1.47-9.77-1.98-2.95-3.96-6.48-2.63-10.12.87-3.87 4.53-5.82 7.83-7.32.71-2.77 1.84-5.41 3.43-7.79-3.74-26.62-8.3-53.13-12.03-79.75 2.1-.28 4.2-.55 6.31-.83-2.77-18.46-5.47-36.93-8.28-55.38-.43-2.71-.79-6.11 1.85-7.87 2.36-2.19 5.59-.87 8.22 0-.67-4.05-1.62-8.1-1.59-12.22.03-2.35 1.97-4.36 4.16-4.98 2.24-.83 4.28.73 6.28 1.52 1.42-2.8 4.17-5.55 7.61-4.36 3.85.92 4.36 5.22 4.74 8.5 1.84-1.45 3.77-3.56 6.37-3 2.78.25 4.76 2.73 5.08 5.39 1.15 6.45 1.93 12.97 2.88 19.46 2.18-1.14 4.57-2.93 7.17-1.94 3.43.91 4.54 4.63 5.73 7.54 1.06 3.11 2.9 6.66 1.1 9.86-2.45 4.73-6.41 8.43-9.68 12.57.74 6.04 1.7 12.05 2.61 18.07 2.46-.39 4.93-.77 7.39-1.15 2.68 17.41 5.47 34.8 8.02 52.22 3.06-1.03 6.28-1.23 9.44-.47 2.74-1.74 5.74-3.9 9.19-3.06 3.7.39 5.86 3.63 7.67 6.49 3.33-2.68 7.54-3.41 11.6-2.12 2.59-1.82 5.45-3.93 8.83-3.22 3.64.22 5.92 3.31 7.7 6.13 2.33.43 4.78.77 6.71 2.26 3.26 2.31 7.22 3.36 10.46 5.72-.43-6.1-.22-12.22-.39-18.33-4.28.23-8.93.57-12.66-1.95-3.16-1.7-4.91-4.93-6.5-7.99-3.55-.52-7.33-1-10.24-3.29-4.86-3.41-6.88-10.16-4.95-15.74.99-3.19 3.6-5.44 5.85-7.77-1.63-4.87-.31-9.93.03-14.88-3.63-2.01-7.26-4.67-8.5-8.85-1.67-4.03-.46-8.36 1.12-12.2-3.07-2.75-5.95-6.14-6.18-10.46-.77-5.33 2.36-10.13 6.19-13.49-.54-3.85-.9-8.02 1.24-11.47 1.93-3.86 5.94-5.84 9.78-7.32-.3-4.7.73-9.5 3.97-13.06 1.89-1.52 4.06-2.63 6.3-3.54 2.8-1.01 4.42-3.72 6.91-5.21 2.45-1.61 5.54-1.58 8.14-2.81 2.19-1.44 4.33-2.96 6.71-4.08 1.98-1.01 3.78-2.34 5.67-3.52 3.08-2.1 7.22-1.52 10.18-3.87 3-2.24 6.64-3.82 10.46-3.42 4.12.03 7.59 2.51 10.57 5.09 3-2.43 6.32-4.92 10.35-5.07 3.72-.53 7.18 1.13 10.46 2.66 2.74-1.22 5.53-2.63 8.6-2.71 3.34-.25 6.34 1.43 9.43 2.4 3.34 1.15 7.06 1.74 9.78 4.19 2.44 1.99 3.58 5.01 4.82 7.81 2.94.3 6.04.31 8.75 1.66 2.76 1.35 4.72 3.82 6.73 6.07 3.87.68 8.04 1.47 10.91 4.43 2.93 2.5 3.85 6.38 4.62 9.98 3.06 1.18 6.4 2.14 8.73 4.59 3.76 3.74 5.1 9.71 3.17 14.68-1.14 3.47-4.13 5.77-6.81 8.03.55 2.99 1.37 6.08.65 9.13-.63 2.95-2.63 5.3-4.33 7.69 1.52 3.2 3.25 6.6 2.65 10.27-.23 3.53-2.43 6.43-4.4 9.2.19 3.88.24 8.07-2.19 11.35-2.42 4.07-7.06 5.76-11.44 6.76.25 15.56.53 31.15-.22 46.71-.38 8.09-2.89 16.34-8.37 22.47-6.76 8-16.85 12.1-26.89 14.15.11 1.31.23 2.62.35 3.94 5.13 2.33 10.35 4.49 15.32 7.17 4.28 2.31 7.32 6.23 10.24 10.01 4.68-14.08 9.99-28.07 12.39-42.77.53-6.73-2.6-13.97.84-20.32 3.76-6.64 9.29-12.05 14.36-17.7 5.33-5.32 9.97-11.54 16.53-15.46 3.93-2.48 8.34-4.04 12.77-5.37-1.57-23.2-3.19-46.4-4.81-69.6 2.14-.18 4.3-.35 6.46-.52l-.14-.34c-.29-6.98-.77-13.95-1.28-20.91-.65-11.32-1.36-22.63-2.17-33.94-.56-3.47-.01-7.72 3.8-9.08 2.48-.4 4.83.46 6.92 1.74-.37-4.14-1-8.31-.65-12.47.09-2.47 2.32-4.31 4.6-4.77 2.22-.5 4.17.95 6.09 1.81m2.06 1.84c.51 10.66 1.36 21.31 2 31.97-.81.04-2.44.13-3.25.18-.76-10.32-1.09-20.68-2.13-30.96-.6-4.33-7.85-3.47-7.48.85.41 10.21 1.31 20.4 1.86 30.61-.8.05-2.41.16-3.21.22-.43-5.25-.51-10.52-1.07-15.74-.11-2.68-3.53-4.66-5.78-2.98-1.85.77-1.97 3.16-1.82 4.88 1.23 18.99 2.4 37.99 3.67 56.98 13.53-.96 27.06-1.9 40.6-2.81-.33-6.34-.79-12.66-1.19-18.99 3.13-3.43 6.61-6.53 9.72-9.98 1.26-1.73 2.86-3.84 2.04-6.1-.81-3.21-1.6-6.48-2.97-9.51-1.76-2.86-6.55-2.22-7.8.79-.89 2.34.59 4.68.89 6.98-.5 1.46-1.82 2.43-2.76 3.61-.72-10.68-1.39-21.35-2.06-32.02-.1-1.68-.28-3.76-2.06-4.53-2.47-1.62-6.19.66-5.74 3.63.37 8.06 1.04 16.12 1.5 24.19-.8.05-2.4.16-3.2.21-.87-10.79-1.16-21.64-2.26-32.4-.85-4.1-7.62-3.26-7.5.92m256.31 14.14c-1.26 10.59-1.95 21.25-3.13 31.85-1.08-.09-2.15-.18-3.21-.26.78-8.21 1.68-16.42 2.29-24.65.3-4.29-6.75-5.06-7.55-.92-1.32 11.23-2.13 22.52-3.3 33.77-.95-1.03-1.89-2.05-2.82-3.07.63-2.67 2.61-5.76.6-8.29-1.87-2.91-6.92-2.09-7.78 1.29-1.11 4.14-4.45 8.96-1.51 13.03 2.97 4.23 6.95 7.64 10.18 11.67-.66 6.24-1.24 12.48-1.79 18.73 13.5 1.36 27.01 2.68 40.52 4.06 1.82-19.45 3.75-38.88 5.48-58.33.69-4.14-6.14-5.72-7.35-1.73-1.16 5.51-1.11 11.22-1.84 16.81-1.09-.14-2.17-.26-3.23-.39.93-10.25 2.14-20.48 2.8-30.74.29-4.2-6.65-4.92-7.48-.87-1.23 10.28-1.98 20.63-3.01 30.94-1.1-.12-2.19-.22-3.28-.33 1.05-9.86 1.89-19.74 2.86-29.61.12-1.72.46-3.78-1.02-5.05-2.04-2-6.06-.78-6.43 2.09m-144.61 10.03c-3.63.97-7.56 1.33-10.66 3.64 1.24 2.06 2.67 4.04 3.6 6.29-.04 1.35-1.14 2.16-2.38 2.33-3.88.53-7.86.24-11.65 1.32-6.08 1.61-11.16 5.47-16.42 8.73-2.01 1.39-4.33 2.57-5.7 4.67-.97 1.71.11 3.64 1.26 4.95 3.76 4.01 9.18 5.63 13.91 8.13 4.38 5.12 8.23 11.26 14.45 14.37 7.19 2.14 14.63-1.01 20.97-4.29 4.63-2.35 8.91-6.98 14.59-5.69 7.62 1.72 13.43 7.36 19.32 12.13 3.85 3.46 8.42 6.25 11.52 10.48 1.97 2.54 2.38 5.78 2.79 8.87 2.49.19 5 .35 7.51.47 6.41-6.04 14.92-10.18 19.22-18.23 2.66-5.49 4.78-11.32 5.87-17.33.88-4.72-2.55-8.65-6.16-11.11-8.34-5.71-17.7-9.63-26.64-14.25-6.67-3.25-13-7.65-17.12-13.94-2.39-3.81-7.15-4.88-11.32-5.19-9.13-.49-18.14 1.57-26.96 3.65m-272.33 8.11c-3.5-.05-6.94.75-9.83 2.76 2.99.58 5.91 1.54 8.59 3.03 2.14-2.16 4.46-4.35 7.47-5.21 4.74-1.89 9.84 1.21 14.52-1.09-2.92-2.51-6.4-4.83-10.42-4.6-4.08-.14-7.71 2.17-10.33 5.11m23.51-.73c2.37.67 4.72 1.49 6.96 2.54 3.44-2.64 7.67-3.84 11.98-3.8-2.74-1.75-5.77-3.38-9.14-3.12-3.79-.12-6.99 2.12-9.8 4.38m19.59-1.15c2.11.82 4.2 1.7 6.25 2.67 2.33-2.17 5.11-3.75 8.09-4.87-4.83-1.85-10.34-1.12-14.34 2.2m6.63 5.66c-5.3-4.97-13.96-4.69-18.94.59-4.29-3-9.74-3.54-14.57-1.57-2.98-.81-6.17-1.38-9.16-.38-3.47.87-5.84 3.74-7.88 6.48-4.98-5.02-13.83-5.21-18.68.07-4.03 3.83-4.19 10.12-1.65 14.82-5.08.92-9.26 4.38-11.04 9.22-2.95 1.65-5.85 3.83-7.02 7.13-1.56 3.36-.64 7.07.47 10.4-3.67 4.14-4.26 10.29-1.37 15.03-5.02 2.7-8.73 8.4-7.12 14.23 1.48 6.65 8.71 10.48 15.19 9.26 1.18 7.82 10.06 12.89 17.37 9.81 6.77-2.33 9.97-10.7 6.76-17.04 4.48-1.49 8.02-4.96 9.39-9.5 3.65-1.26 6.68-3.81 8.45-7.26 5.85.1 11.45-3.41 13.32-9.06 6.48 3.77 15.28 1.35 18.72-5.37 5.41 3.79 12.97 3.12 17.73-1.43 3.3 4.71 9.32 7.01 14.92 5.52 1.9 2.39 4.17 4.61 7.14 5.6 5.98 2.24 12.78-.66 15.96-6.03 3.41 1.71 7.43 2.45 11.1 1.09 6.23-1.97 10.05-9.44 7.65-15.6-1.79-5.11-7.07-8.07-12.29-8.34-.01-3.19-.44-6.55-2.5-9.12-2.7-3.86-7.65-5.26-12.16-5.06-2.66-5.97-9.6-9.09-15.87-7.38-.57-4.86-3.55-9.55-8.31-11.2-5.61-2.25-12.33.08-15.61 5.09m-80.35 9.99c-1.54 1.47-2.66 3.62-4.99 3.9-7.16 1.47-11.29 9.79-8.52 16.49-4 .53-8.11 2.21-10.34 5.75-2.6 3.56-2.39 8.29-.82 12.22-3.03 2-5.92 4.66-6.65 8.39-1.52 5.65 1.95 11.55 7.09 13.95-2.09 2.98-3.71 6.6-2.88 10.32.64 4.74 4.6 8.1 8.81 9.82.15 3.07.48 6.35 2.55 8.8 2.55 3.62 7.07 4.95 11.3 5.16 1.76-3.93 5.14-6.78 9.11-8.33-3.71-1.83-6.15-5.21-7.72-8.94-6.07.18-12.4-2.92-14.75-8.75-2.91-6.31-.07-14 5.6-17.71-1.91-4.85-1.36-10.39 1.75-14.62-2.77-7.05.45-15.39 7.27-18.69 1.92-4.18 5.34-7.54 9.72-9.05-1.29-4.05-.79-8.28.73-12.18-2.53.85-5.36 1.44-7.26 3.47m-109.5 19.86c1.4 10.3 3.17 20.56 4.48 30.88l-3.14.28c-1.52-9.87-2.85-19.77-4.44-29.62-.1-2.58-3.02-4.51-5.38-3.28-1.95.69-2.6 2.91-2.17 4.78 1.33 9.81 2.93 19.57 4.33 29.37l-3.2.4c-1.09-5.58-1.24-11.36-2.84-16.81-1.61-3.58-7.78-1.81-7.09 2.1 2.57 19.39 5.78 38.69 8.47 58.06 13.48-1.86 26.9-4.1 40.35-6.11-.96-6.26-1.86-12.52-2.81-18.77 3.51-5.03 8.96-9.03 10.7-15.08-.66-3.81-2.21-7.46-3.93-10.91-1.95-3.25-7.43-1.93-8.01 1.72-.05 2.42 1.1 4.65 1.8 6.92-.9.95-1.79 1.9-2.69 2.86-1.6-10.37-3.08-20.75-4.64-31.12-.29-1.95-.95-4.56-3.29-4.86-2.55-.7-5.19 1.77-4.57 4.35.97 8.01 2.41 15.97 3.47 23.97-.79.13-2.37.37-3.16.5-1.58-10.21-2.99-20.45-4.59-30.65-.07-2.18-1.91-4.25-4.23-3.84-2.45 0-4.04 2.59-3.42 4.86m368.84 1.21c.04 3.37 2.42 5.99 4.57 8.34 1.57-3.94 3.27-7.82 5.34-11.53-2.14-1.15-4.27-2.32-6.38-3.51-1.59 1.96-3.57 3.98-3.53 6.7m11.93-2.61c-5.53 9.3-8.54 20.04-8.54 30.87 16.94.7 33.86 1.95 50.8 2.36 14.33 1.16 28.71 1.51 43.06 2.35-.25-4.33-2.18-8.46-5.64-11.13-6.23-5.05-12.09-10.59-18.78-15.04-3.95-2.46-9.16-5.02-13.61-2.28-7.67 4.98-16.2 9.87-25.63 9.67-6.09-.01-10.31-4.92-14.11-9.01-2.52-2.61-3.99-6.36-7.55-7.79m114.69 20.54c-2.53 4.02-6.25 7.05-9.77 10.16.01 2.14.03 4.28.09 6.42 1.99 2.19 2.9 4.97 3.01 7.91 1.26.53 2.53 1.08 3.81 1.62 3.41-6.61 4.84-13.97 6.61-21.14 1.09-4.33 1.45-8.86.53-13.26-1.45 2.75-2.66 5.63-4.28 8.29m-312.65.69c-2.16 2.18-4.4 4.53-7.41 5.47-3.51 1.4-7.35.8-10.91-.02-2.76 4.88-7.85 7.73-13.35 8.28-2 3.03-4.87 5.27-8.06 6.94-1.41 3.96-4.46 6.93-8.13 8.87 2.54 8.15-3.18 17.5-11.74 18.49-4.62.16-9.8.14-13.34 3.62-3.84 3.49-3.89 9.21-2.67 13.88 1.13 4.61 3.8 9.68 8.8 10.83.19.45.57 1.36.75 1.81-.3.3-.91.89-1.21 1.18l-.12-.61c-2.43-1.31-4.75-2.83-6.73-4.76v-.4c-3.4-4.75-4.52-10.74-4.12-16.48-5.83.02-10.94-3.26-14.13-7.98-.15 3.29.38 6.56 2.03 9.44-5.13 2.34-8.57 8.04-7.32 13.7 1.22 6.84 8.61 10.95 15.22 9.72 1 3.64 2.91 7.29 6.45 9.01 3.37 2.07 7.48 1.79 11.18.91.12-5.1-.89-10.36.93-15.27.24.31.72.91.96 1.21.02 12.61.18 25.23.4 37.85 2.5.45 5.31.7 7.13 2.71 2.07 1.79 2.53 4.59 2.95 7.15 5.18 1.15 8.57 6.03 7.77 11.3 4.61 1.87 7.12 6.75 5.92 11.61 2.88 3.27 3.5 7.93 1.25 11.72 1.08 1.72 2.48 3.27 4.47 3.96 10.07 4.39 20.77 7.71 31.78 8.41 3.89.09 8.39.1 11.39-2.78 2.28-3.32 1.69-7.63 1.74-11.44-.36-6.42.42-12.82.59-19.23 12.03-1.72 24.36-7.47 30.57-18.39 5.27-8.84 4.56-19.47 4.86-29.36.28-17.63-.18-35.27-.59-52.9-3.57-1.77-7.67-3.62-11.67-2.12-2.7.61-5.18 2.98-8.05 2.02-1.34-2.23.66-4.52 2.34-5.83 4.94-3.82 11.83-3.58 17.28-1.02-.48-7.4-1.98-14.85-5.29-21.52-4.04-1.28-8.02-3.01-10.75-6.4-5.31.69-10.69-1.01-14.46-4.84-4.94 3.34-11.32 3.86-16.71 1.26m44.19 9.72c3.12 7.36 4.87 15.23 5.06 23.23 1.82 2.03 3.55 5.34.11 6.84.11 5.25.26 10.49.34 15.74 4.52-.6 8.91-3.17 10.77-7.49 1.5-2.91 1.08-6.27.42-9.34 2.36-2.27 4.6-5.01 4.86-8.42.65-3.94-1.31-7.63-3.82-10.51 5.18-3.32 7.21-10.03 4.86-15.71-3.74.8-7.59.65-11.23-.54-2.85 3.46-6.84 5.83-11.37 6.2m251.15 5.16c1.85.16 3.7.29 5.57.44-.01-1.42-.02-2.84-.01-4.26-1.95 1.14-3.82 2.39-5.56 3.82M691 207.97c-2.9 2.85-5.49 5.97-8.3 8.9 1.03 1.78 2.1 3.52 3.21 5.25 4.3-4.54 8.6-9.07 12.76-13.74-2.56-.12-5.12-.25-7.67-.41m14.15 2.06c-5.03 5.46-10.13 10.84-15.17 16.28.62.3 1.86.91 2.48 1.21 5.8-6.23 11.61-12.45 17.41-18.67-1.66.13-3.7-.52-4.72 1.18m29.68 9.3c1.02 1.87 2.09 3.71 3.23 5.51 4.24-4.65 8.55-9.24 12.88-13.81-2.64-.14-5.27-.28-7.9-.4-2.62 3-5.48 5.79-8.21 8.7m7.27 9.69c.56.28 1.7.83 2.26 1.1 6.08-5.95 11.72-12.36 17.5-18.6-.86-.01-2.58-.02-3.44-.03-5.49 5.81-10.93 11.65-16.32 17.53m-12.91-13.78c.53.52.53.52 0 0m2.31.58c-3.89 5.71-7.05 11.97-8.72 18.7-.87 5.16-.44 10.49-1.82 15.58-.32 1.43-1.07 4.16 1.08 4.45 4.04.81 8.2-.34 12.28.33-.87.91-1.77 1.98-3.17 1.79-3.04.16-6.11.38-9.12-.02-2.49-.41-4.06-3.22-3.3-5.59 1.11-4.31 1.39-8.75 1.63-13.18.2-5.28 2.53-10.12 4.57-14.89-7.3 10.01-21.91 13.02-32.71 7.09-.28 14.31-.33 28.63-.08 42.94 3.52 2.59 7.03 5.19 10.45 7.91.51-7.38 2.6-15.99 9.64-19.78 8-3.94 19.98-2.29 24.14 6.37 1.8 5.23 2.05 10.87 3.31 16.25 8.85-3.3 18.04-5.6 27.25-7.64 5.39-1.15 10.21-4.25 13.86-8.33 6.99-7.66 10.24-17.9 12.08-27.92-6.47-5.35-9.23-14.12-7.45-22.28-1.38-.02-2.75-.03-4.11-.04-1.59 4.27-3.86 8.39-7.31 11.43-7.4 6.96-19.14 8.84-28.26 4.28-7.17-3.2-12.16-10-14.24-17.45m63.54 22.77c-1.46 10.38-4.88 20.74-11.43 29.05-4.33 5.51-10.63 9.44-17.53 10.77-9.5 2.01-18.9 4.59-27.94 8.15-1.17-5.82-1.96-11.73-3.32-17.5-3.47-8.4-15.2-9.87-22.43-5.72-6.88 4.71-7.57 13.81-8.13 21.39-4.44-3.43-8.81-6.94-13.45-10.08-2.68 4.56-2.69 10.07-2.18 15.18 1 8.89 4.81 18.04 12.36 23.3 5.22 3.73 11.74 4.96 18.05 4.98 22.27.57 45.01-5.69 62.97-19.09 4.71-3.4 6.96-8.99 8.93-14.24 5.33-15.26 6.86-31.85 4.44-47.83 0-6.25.63-12.49.36-18.74-2.72-.16-5.43-.33-8.13-.51-2.03 7.62.54 16.6 7.43 20.89m2.74-20.32c.17 6.21-.35 12.41-.4 18.6 2.4 15.78.93 32.12-4.11 47.25-2.11 6.22-4.83 12.75-10.35 16.72-15.91 11.76-35.47 18.08-55.15 19.18-.02 4.64-.17 9.28-.17 13.92 23.13 12.58 52.64 11.46 75-2.32.28-26.67.73-53.35 1.03-80.02 4.69-.75 9.1-3.43 11.13-7.85 2.37-5.31 3.72-11.93.79-17.29-2.25-3.98-6.95-5.37-11.15-6.13-.15-.45-.46-1.34-.62-1.78-2.01-.08-4.01-.17-6-.28m-265.66 14.17c3.57-1.13 6.99-3.29 10.88-2.96 3.63.26 6.81 2.21 10.18 3.42-4.3-7.26-16.52-7.69-21.06-.46m-228.64 22.68c3.58 22.81 7.08 45.64 10.54 68.47.96-1.2 1.94-2.39 2.9-3.58-1.39-5.89 2.41-11.85 8.34-13.02.34-3.48 1.68-7.08 4.87-8.9 3.84-2.62 8.84-1.52 12.41 1.03 3.77-2.41 8.43-2.26 12.13.21 3.26-2.28 7.38-2.63 10.98-.91-2.74-17.2-5.36-34.42-7.97-51.65-18.07 2.74-36.14 5.5-54.2 8.35m280.9 11.22c-5.2 4.47-9.51 9.83-14.3 14.71-4.56 5.27-9.88 10.25-12.52 16.84-.93 3.88-.09 7.93-.03 11.87 5.97-4.8 11.04-11.15 18.53-13.69 3.76-1.43 7.87-.9 11.68.04-2.88 2.58-5.91 5.26-7.08 9.1 4.58 1.29 6.47-3.82 9.31-6.26 4.49-5.02 12.61-4.57 17.71-.78 2.44 1.88 1.92 5.28 2.35 7.98 3.65.75 7.53 1.18 11.14-.01 2.53-1.46 4.47-3.73 6.75-5.54 1.65 10.8 4.38 21.4 7.55 31.85 3.1 10.7 7.35 21.09 9.17 32.13 4.23 23.24 1.75 46.96-1.02 70.21-1.32 12.01-2.93 24.21-1 36.26 1.6-.82 3.22-1.63 4.83-2.44 2.9-4.64 6.46-9.14 11.37-11.77 3.4-1.67 7.99-2.38 11.13.19 1.43 1 1.36 3.03.49 4.38-3 5.39-7.75 10.14-8.5 16.53.19 3.67 1.19 7.27 1.33 10.97 8.89 1.52 18.56 4.01 24.56 11.27 3.94 4.58 4.42 10.92 3.86 16.69 3.33 2.06 6.58 4.26 9.65 6.71 8.94-4.72 17.18-13.06 17.84-23.65.66-10.48-4.99-20.06-11.34-27.93-2.82-3.85-7.2-6.7-8.46-11.53-3.07-9.85-3.55-20.25-4.38-30.46-1.86-30.08-3.11-60.21-5.72-90.25-1.24-15.69-2.94-31.63-8.69-46.41-2.81-7.09-6.8-14.15-13.15-18.63-3.35-2.46-7.59-3.04-11.24-4.9-12.96-7.08-27.32-12.19-42.19-12.74-10.52-.42-21.47 2.39-29.63 9.26m246.87 8.95c-7.56 2.05-15.02 5.68-20.12 11.77-6.26 7.47-7.37 18.09-5.17 27.31 2.63-4.7 6.04-10.3 12.17-10.24-1.32 2.82-2.58 5.74-2.52 8.93 4.86-4.69 10.78-8.95 17.85-8.91-2.05 2.92-4 6.03-4.38 9.67 4.66-4.83 10.88-7.97 17.55-8.77 7.43 13.36 22.47 21.06 37.31 22.63 6.93.59 11.13 7.23 12.64 13.41 3.22 13.13 1.5 26.93-1.44 39.95-2.82 11.26-6.87 22.61-14.49 31.57-1.07 1.11-1.3 2.65-1.57 4.1 6.41 1.64 13.05.63 19.48-.35-2.02 7.45-7.79 13.46-14.91 16.29-2.46.59-5.06 4.17-2.43 6.07 7.21 2.91 15.21 1.05 21.93-2.27-.14 4.43-2.9 7.9-5.84 10.93-1.88 1.63-1.37 5.75 1.6 5.57 11.37.58 23.44-2.26 32.1-9.99 7.42-6.61 11.53-16.16 13.15-25.82 3.57-21.98-1.66-44.15-7.61-65.24-2.88-16.6-5.8-33.41-12.46-49-4.59-10.51-11.01-21.12-21.48-26.62-8.81-4.83-19.38-4.21-28.77-1.64-2.04-1.35-4.54-1.41-6.88-1.64-11.91-1.11-24.11-.82-35.71 2.29m-453.74 23.99c-3.71-2.87-8.83-1.86-11.57 1.79-1.91-.86-3.84-2.25-6.04-1.77-2.21.14-3.81 1.8-5.46 3.07-2.92-4.06-8.86-3.85-11.99-.18-2.71-3.35-7.72-4.92-11.47-2.32-3.1 1.86-3.85 5.7-3.35 9.04-2.99.26-6.3 1.17-7.78 4.05-1.63 2.34-.95 5.22-.37 7.78-4.21 2.55-5.38 7.81-3.14 12.09-2.57 2.72-4.62 6.05-3.93 9.96-3.66.33-7.65 2.29-8.47 6.19-1.07 3.59 1.28 6.86 3.94 9-2.62 2.77-3.43 6.54-2.1 10.14-1.52 1.94-3.46 3.49-5.08 5.35-1.42 2.13-1 4.76-.68 7.14-3.24.63-6.68 2.29-7.52 5.79-1.48 3.99 1.37 7.74 4.62 9.75-2.91 3.58-2.64 8.66.63 11.91-1.03 3.7-2.03 7.6-.1 11.22-3.18 1.34-6.17 3.98-6.06 7.73-.16 4.07 3.34 6.76 6.79 8.03-2.2 4.16-.71 9.12 3.32 11.5-1.95 5.19 1.9 10.72 7.3 11.15-1.74 4.27.3 9.8 4.96 11.02 3.12 1.1 6.14-.44 8.55-2.33 1.91 1.43 4.04 2.96 6.59 2.64 3.35-.05 5.86-2.58 7.43-5.3 3.95.27 8.42-1.6 9.47-5.75 1.2-3.59-1.03-6.89-3.58-9.17 2.01-3.92 1-8.69-2.64-11.25 1.53-2.19 3.15-4.68 2.53-7.5-.15-2.76-2.62-4.34-4.44-6.03 2.26-3.48 1.99-7.81-.69-10.96 2.9-.89 5.99-2.73 6.27-6.08.66-3.22-1.64-5.89-4.13-7.52 2.43-3.45 2.32-8.09-.57-11.23 3.44-1.33 6.74-4.28 6.24-8.32.03-3.26-2.72-5.3-5.04-7.07 1.79-2.62 2.43-5.72 1.63-8.83 2.6-.84 5.71-1.69 6.85-4.5 1.96-3.27.44-7.1-1.74-9.8 2.66-.77 5.94-.91 7.55-3.54 1.74-2.1 1.24-4.89.75-7.33 2.92-.61 5.14-2.51 6.53-5.1 2.78 1.69 6.49 2.36 9.16.05 2.89-1.88 2.63-5.58 2.84-8.58 2.9.84 5.97 1.03 8.75-.37 1.4 2.54 3.38 5.4 6.66 5.31 2.99.47 5.27-1.7 7.1-3.72.78 3.3 3.38 6.4 7.01 6.35 3.1.37 5.39-2.02 7.15-4.21 2.38 1.71 5.24 2.3 8.08 1.48.62 2.54 1.59 5.41 4.3 6.41 4.12 2.2 9.74-.97 10.03-5.6.37-2.33-1.18-4.24-2.38-6.04 1.43-1.02 2.85-2.06 4.23-3.14 1.27 3.03 3.87 6.07 7.52 5.58 5.56.22 8.87-7.31 5.04-11.28-1.97-2.66-5.51-2.5-8.41-1.97-.52-4.37-4.37-7.4-8.72-7.12-2.05-3.41-5.98-4.99-9.81-3.73-.67-2.92-2.21-6-5.41-6.7-3.58-1.15-6.95 1.15-8.79 4.08-2.1-1.13-4.47-2.43-6.92-1.56-2.42 1.07-4.58 2.72-7.22 3.26-.48-3.88-3.53-7.75-7.79-7.24-2.91-.11-4.73 2.31-6.43 4.28m189.13 5.15c-3.48 6.6-4.88 14.1-5.56 21.47-2.13 23.65-4.47 47.3-5.34 71.04-.39 4.98.16 10.14 2.78 14.49 6.38 11.04 16.79 19.05 27.34 25.87.31 11-1.02 22.76 3.92 32.98 4.13 7.99 13.73 10.32 21.96 11.19.21-3.98 2.14-8.36 6.56-8.95.17-1.51-.11-3.15.69-4.5 1.53-3.04 5.94-3.57 8.61-1.79 3.82 2.68 7.65 5.4 10.97 8.72.79-.81 1.59-1.62 2.4-2.42-2.43-11.77-.81-23.85.4-35.67 2.88-24.05 5.68-48.62 1.14-72.65-1.71-10.04-5.44-19.55-8.38-29.25-3.03-10.04-5.89-20.16-7.6-30.52-3.91 4.92-10.96 5.25-16.56 3.66-3.8-1.49-.69-7.05-4.21-8.82-3.58-2.12-8.42-2.93-12.14-.71-3.34 1.95-5.05 5.67-8.08 7.98-1.88 1.44-4.95 1.21-6.29-.84-.87-3.59 2.36-6.15 4.32-8.66-6.44-.33-12.48 2.97-16.93 7.38m250.18 10.59c-1.18-.47-2.6-.79-3.17-2.06-.28-2.19.57-4.3.96-6.41-6.64 4.89-8.52 13.26-9.75 20.93 1.94-1.91 3.88-3.99 6.52-4.91 6.11-2.28 12.98-.55 18.42 2.68 1.28.56 2.86 2.63 1.23 3.77-3.67 1.84-7.41-1.06-11.07-1.58-5.64-1.57-11.59.7-15.48 4.88-2.22 23.85-4.73 47.7-5.45 71.66-.32 4.66 1.17 9.31 3.78 13.16 6.82 10.45 17.21 17.86 27.58 24.5-.11 8.82-1.06 17.6-1.59 26.4-.2 6.89-.48 15.05 4.94 20.21 6.42 5.36 15.35 5.37 23.28 5.37 12.18-.39 25.64-1.17 35.47-9.27 8.41-7.24 10.34-18.9 11.56-29.34-2.32-.06-4.68.22-6.95-.3-3.06-1.25-3.88-5.66-1.73-8.06 1.8-2.18 3.7-4.29 5.22-6.69-6.21 2.24-13.16 3.16-19.49.9-2.72-.66-3.74-4.14-2.48-6.45 1.27-3.03 4.84-3.64 7.38-5.21 4.3-2.22 7.47-6.04 9.64-10.29-5.16.51-10.44 1.2-15.58.14-2.71-.38-3.57-3.99-2.18-6.04 2.1-2.97 4.65-5.63 6.35-8.88 7.43-13.48 11.05-28.84 11.96-44.13.25-8.2.01-16.9-3.93-24.3-1.82-3.49-5.41-5.93-9.36-6.15-14.86-1.72-29.49-9.48-37.5-22.4-5.95 1.18-11.44 4.15-15.35 8.81-4.62-1.4-2.12-6.56-.67-9.47-4.91 1.6-9.15 4.7-12.56 8.53m-258.3-3.45c-2.19 15.14-7.2 29.63-12.18 44.03-2.34 7.21-5.19 14.59-4.7 22.3.9 10.59 10.47 17.73 12.06 28.13-.09-21.36 2.14-42.64 3.89-63.9 1.26-11.49 1.2-23.33 5.29-34.3-1.46 1.25-2.9 2.5-4.36 3.74m-115.5 17.62c-4.06.88-7.42-1.88-9.98-4.62 1.15 2.72 1.87 5.62 1.31 8.59 7.89 9.96 13.04 22.17 13.74 34.93-.4 2.65 4.11 5.98.3 7.51.42 20.79.87 41.59.51 62.38-.15 6.51-.36 13.09-2.11 19.4 3.25 1.79 6.94 1.18 9.76-1.11 2.44 1.58 5.47 3.17 8.36 1.65 3.83-1.41 4.94-5.96 3.69-9.54 3.62-.51 7.17-3.4 6.91-7.33.05-3-2.3-5.09-4.68-6.46 2.08-2.93 2.19-6.52.28-9.57 1.58-1.4 3.64-2.67 3.95-4.96.65-2.11-.5-4.14-1.18-6.08 2.7-1.31 5.53-3.59 5.28-6.93.3-3.69-3-5.92-6.02-7.06.3-2.05 1.05-4.26.08-6.24-.8-2.31-3.23-3.27-5.13-4.43 2.77-2.91 2.71-7.14.38-10.29 3.07-1.78 5.61-5.35 4.13-9-.84-2.93-3.8-4.15-6.48-4.85.87-3.45-.22-6.81-2.91-9.09 2.93-3.44 2.59-8.62-1.13-11.34.52-2.22 1.28-4.67-.05-6.77-1.04-2.5-3.84-3.16-6.14-3.97.51-2.22 1.35-4.74-.03-6.83-.96-2.17-3.25-3.07-5.23-4.02-1.85 2.7-4.02 5.8-7.61 6.03m-69.78 5.03c-2.64 3.09-7.15 3.76-10.85 2.4a32.592 32.592 0 0 1-4.91 3.76c.82 4.92-2.45 9.52-7.2 10.75 2.85 5.56-.24 12.54-6.13 14.38-.12 2.27-.48 4.53-1.28 6.68 1.73 1.97 3.78 3.98 4.02 6.75.74 4.06-1.65 7.89-4.87 10.15 1.29 3.16 1.38 6.59.13 9.78 2.31 2.37 4.12 5.64 3.15 9.05-.37 2.81-2.75 4.54-4.79 6.2 1.14 3.02 1.23 6.24.09 9.3 4.04 3.45 4.92 9.38 2.07 13.88 2.71 2.95 3.43 7.05 2.31 10.86 2.29 2.72 4.07 6.19 3.09 9.85-.94 4.8-5.73 7.61-10.34 7.85-1.25 1.64-2.78 3.03-4.47 4.21.06 9.52.23 19.04.38 28.56 22.92 14.02 53.11 14.93 76.87 2.39-.01-6.14-.11-12.28-.27-18.42 11.71-1.61 23.59-7 30.38-17.03 4.53-6.56 5.97-14.64 6.1-22.46.66-23.12.17-46.26-.49-69.38-4.1-2.2-8.59-4.34-13.39-3.62-3.3.17-6.46 1.86-9.76 1.52-2.29-.47-.81-3.34.8-3.75 6.99-3.04 15.07-2.67 22.21-.33-.92-11.73-5.44-23.05-12.67-32.31-2.22 2.23-5.08 4.31-8.41 3.88-3.87-.15-7.04-3.01-8.32-6.54-2.05-.17-4.07-.57-6.04-1.08-2.16 1.9-4.81 3.57-7.8 3.33-3.18-.02-5.71-2.21-7.64-4.52-4.48 3.25-10.99 2.05-13.89-2.69-1.93.2-3.85.33-5.77.4-.45 2.16-.72 4.52-2.31 6.2m142.88 7.79c.3 2.63.66 5.26.93 7.91-.98 1.96-1.13 4.2.28 6.01.23 4.66-.79 9.3-3.5 13.14-2.51.97-5.06 2.01-7.79 2.07-9.86.57-19.34-2.6-28.74-5.11-3.14-1.38-6.21-2.97-9.53-3.9 1.28 2.06 3.6 2.95 5.48 4.33 1.4 2.69 2.02 5.64 1.55 8.65-1.08 1.58-2.22 3.12-3.47 4.56 1.23 2.93 1.09 6.08-.03 9.02.88.66 1.77 1.33 2.68 1.98 1.42 2.44 1.92 5.21 1.72 8.01 2.48 1.8 5.27 3.93 5.4 7.29.67 3.64-1.67 6.77-4.23 9.04.81 3.69.26 7.75-2.79 10.28.52 2.85.65 5.77-.25 8.57 1.9 1.97 3.86 4.27 3.71 7.22.17 4.03-2.73 7.38-6.31 8.85.22 3.95-1.5 8.3-5.42 9.79-3.02 1.55-6.38.54-9.23-.83-3.32 1.83-7.1 1.99-10.56.45-.43 1.05-.85 2.11-1.27 3.18-2.65 4.86-6.05 9.42-10.6 12.65-1.41 1.19-3.4 2.08-3.73 4.09-1.49 5.3-2.88 10.63-4.16 16 28.22 13.63 56.57 26.97 84.83 40.53 2.48 1.09 4.94 2.79 7.8 2.34 8.99-.6 17.98-1.17 26.97-1.82 2.29-13.09 4.62-26.18 7.15-39.22-13.1-2.38-25.8-8.29-35.11-17.97 5.14-.4 10.72-.9 14.83-4.37 4.58-3.83 5.94-10.01 6.86-15.62 1.59-10.8 2.23-22.03 7.17-31.97 3.37-6.14 6.5-13.08 5.18-20.25-1.32-8.36-7.66-14.56-10.7-22.22-1.12-2.6-1.31-5.45-1.94-8.17.51-5.28 1.52-10.5 3.15-15.55-2.58-3.84-5.39-7.75-9.49-10.09-3.75-2.12-7.74-3.76-11.66-5.52-1.73-1.13-3.45-2.24-5.18-3.35m36.92 75.98c-1.61 5.61-5.18 10.4-6.89 15.97-3.01 9.04-3.32 18.64-5 27.94-1.06 5.44-2.97 11.25-7.54 14.74-3.12 2.5-7.11 3.33-10.9 4.21 8.15 7.31 18.57 11.84 29.24 13.97 8.76 1.63 19.23.67 25.34-6.56 6.89-8 7.03-19.32 6.34-29.3-.73-6.86.39-13.71.26-20.57-8.08-5.08-15.49-11.23-21.8-18.39-3.59-4.21-6.65-9-7.9-14.45.14 4.17.13 8.42-1.15 12.44m236.95-6.17c-1.05.83-2.84 1.65-2.35 3.33 4.11 3.25 9.62 3.76 14.57 4.97-2.6-3.94-4.6-8.29-5.26-12.99-2.25 1.67-4.61 3.17-6.96 4.69m.05 19.23c-2.75.86-6.85-.09-8.19 3.1-1.21 2.46 2.06 3.42 3.55 4.61 5.6 3.65 12.8 4.44 18.94 1.61-1.83 3.41-4.87 5.84-7.25 8.8-1.2 2.27-2.1 6.5 1.1 7.52 9.57 2.98 20.17 2.83 29.51-.93.34-4.38.57-8.76.6-13.15-8.79-5.36-16.93-11.85-23.78-19.55-4.37 3.34-8.77 7.2-14.48 7.99m-15.27-.37c-1.95 1.46-2.49 3.9-3.16 6.1-7.74-1.87-15.51.71-22.79 3.15-.52 2.58-1.37 5.55.3 7.91 1.63 2.02 4.54 3.51 7.13 2.47 5.16-1.54 10.32-3.14 15.54-4.51 1.1-.27 2.32-.65 3.39 0 4.28 1.89 8.96 4.47 13.78 2.99 2.34-.62 3.74-2.71 5.15-4.51-5.44-1.59-11.79-3.07-14.7-8.5-1.3-.38-4.07-.76-2.87-2.79.81-1.31 2.42-.49 3.61-.43 2.52-3 6.52-2.94 10.05-3.72-5.05-1.49-11.23-1.89-15.43 1.84m-37.87 15.19c-2.27 3.91 2.64 7.02 5.31 9.11 2.93-.96 5.85-1.96 8.77-2.97-3.98-2.18-5.65-6.61-4.76-10.98-3.12 1.57-6.56 2.66-9.32 4.84m-26.29 20.69c-3.08 3.12.87 6.55 2.45 9.31.37-3.49 2.31-6.54 5.08-8.62 6.47-5.13 14.24-8.25 21.81-11.36-2.84-2.22-5.41-4.97-6.08-8.65-8.65 5.2-17.12 11.2-23.26 19.32m-62.18 3.95c-3.31 1.14-6.16 3.24-8.46 5.84 1.06 2.07 2.88 4.12 2.37 6.62-.53 2.37-3.08 2.98-5 3.8.73 2.75 1.81 5.4 2.54 8.16-1.43.47-2.37-.15-2.8-1.88-1.15 1.12-2.46 2.04-3.86 2.8.08 2.22.85 4.85-.75 6.73-1.38 1.83-3.87 1.63-5.9 1.85.35 2.54 1.21 7.03-2.57 7.17-4.99-1.04-8.58-5.14-11.94-8.68 1.08-.87 2.02-.84 2.82.11 2.98 2.81 6 6.04 10.28 6.65.3-4.28-2.13-8.07-5.63-10.3-4.59-2.98-10.42-5.71-15.88-3.51-.11 5.69 3.79 10.2 7.17 14.36 7.21 8.37 17.19 15.53 28.63 15.73 3.95 4.69 8.04 9.26 11.92 14.02 3.84-.21 7.87-1.14 10.67-3.98 5.8-5.66 7.82-14.08 8.42-21.91-4.22-4.19-8.13-8.67-12.27-12.93 2.67-6.32 3.88-13.43 2.03-20.15-1.53-8.65 5.86-14.95 9.31-22.09-2.29-1.16-4.87-2.08-7.41-1.18-6.33 1.81-10.27 7.55-13.69 12.77m-27.69-1.79c-.71 1.39-.27 3.01-.29 4.52 5.34 3.63 11.27 6.61 15.7 11.41 1.28-.31 2.56-.68 3.82-1.09 1.26-1.78-.2-3.67-1.19-5.17-3.3-4.15-7.71-7.19-12-10.2-1.74-1.38-4.58-1.14-6.04.53m-34.85-2.54c.92 5.2-2.68 10.58-.22 15.47 1.29-2.63 2.49-5.3 3.8-7.92a42.393 42.393 0 0 1-3.58-7.55m201.25 8.07c-8.68 7.81-15.28 17.58-21.42 27.42-11.09 18.26-19.92 37.76-28.11 57.45-9.99-10.63-20.6-20.7-31.99-29.81-11.62-9.09-24.05-17.86-38.45-21.84 1.67 1.98 3.4 3.91 5.21 5.77-.4 8.43-2.46 17.4-8.47 23.67-3.83 3.82-9.85 6.27-15.13 4.2 8.66 13.66 19.38 25.9 31.15 36.95 14.51 14 30.33 26.54 46.38 38.71 4.86 4.36 10.92 7.87 17.63 7.85 8.27.27 15.68-5.07 20.24-11.63 2.36-3.3 2.69-7.52 4.7-10.99 1.83-3.44 4.52-6.36 6.13-9.92.6-3.31.28-6.72.48-10.07.77-23.09 2.14-46.24 6.01-69.04 2.83-15.68 6.39-31.81 15.41-45.23-3.57 1.66-6.89 3.83-9.77 6.51m-173.49 7.17c7.32 1.72 12.76 7.18 18.38 11.77 4.27 1.34 3.25-4.42 3.03-6.9-3.93-4.01-8.87-6.72-13.43-9.9-1.35-.81-2.86-2.04-4.53-1.38-2.79.74-2.82 4.16-3.45 6.41m-26.36 1.85c2.4 2.96 5.56 5.14 9.08 6.6.88-3.03 1.97-6 3.18-8.92-3.18-1.34-6.1-3.19-8.73-5.41-1.25 2.54-2.43 5.12-3.53 7.73m-174.58 1c4.16 2.89 8.16 6.03 11.79 9.57 1.23-4.97 2.54-9.92 3.92-14.85-4.98 2.46-10.25 4.29-15.71 5.28m303.22-4.09c1.6 3.03 2.97 6.19 4.16 9.41 10.4 3.3 21.24 4.83 32.05 6.04 2.1-1.81 3.38-5.5.16-6.92-12.26-1.69-25.52-1.71-36.37-8.53m-117.52 10.06c3.15.12 6.31.15 9.47.14.11-2.49.47-4.97 1.53-7.24-2.68-.34-5.33-.89-7.95-1.53-1.23 2.8-2.24 5.68-3.05 8.63m12.44-5.34c-1.5 2.47-.68 5.47-.46 8.18 5.16 1.33 10.14 3.74 13.81 7.69 1.55 1.99 4.46 1.76 6.58.93 1.76-2.76.49-6.6-1.97-8.51-4.19-3.58-8.48-7.41-13.81-9.15-1.36-.47-3.34-.6-4.15.86m144.83 3.55c.96 2.54.37 5.1-.69 7.49 2.71.19 5.42.42 8.14.74.63-.85 1.21-1.74 1.74-2.66-1.08-3.95-5.52-5.43-9.19-5.57m7.97.39c2.64 2.17 3.79 5.35 2.37 8.62 1.61-2.57 3.31-5.09 4.97-7.63-2.45-.32-4.9-.64-7.34-.99m-100.67 2.05c-.53 3.22-1.28 6.41-2.4 9.49 1.57 1.78 2.83 4.32 5.4 4.75 4.61 1.14 9.08 2.73 13.41 4.66-.16-4.79-.2-9.59-.5-14.37-5.13-2.09-10.43-3.73-15.91-4.53m18.07 5.85c.05 4.66.28 9.33.35 14 2.78 1.59 5.58 3.15 8.34 4.8 1.29-7.42-2.26-14.96-8.69-18.8m-251.01 2.7c3.8 4.76 7.54 9.61 10.5 14.95 9.65 16.77 13.15 36.65 10.99 55.8 16.96 8.31 34.14 16.17 51.08 24.52.3-.46.9-1.37 1.19-1.82 10.13 4.22 21.17 1.23 31.72.97 3.36-18.48 6.75-36.95 9.91-55.47-8.48.55-16.95 1.1-25.43 1.7-1.87.04-3.86.37-5.58-.53-28.15-13.31-56.19-26.88-84.38-40.12m273.25 25.47c6.99 5.39 13.63 11.21 20.17 17.12-1.74-10.3-3.82-20.54-5.69-30.82-3.54 5.75-8.72 10.26-14.48 13.7m31.94 21.12c-.9 2.55 1.89 3.87 3.34 5.42.54-1.23 1.09-2.44 1.64-3.66-.2-1.71-.38-3.41-.54-5.11-1.74.62-4.18 1.15-4.44 3.35m-8.55-.91c3.12 2.71 5.4 7.02 9.78 7.76-1.07-1.41-2.26-2.67-3.15-4.17-.39-1.66.14-3.34.29-4.99-2.32.47-4.62.94-6.92 1.4m47.58 51.84c-1.27.84-1.26 1.53.05 2.09 1.25-.86 1.24-1.55-.05-2.09Z"/><path d="M746.37 195.55c6.85-1.87 14.59.49 19.53 5.53 1.21 1.45 3 3.71 1.14 5.41-3.53-.8-5.7-4.25-9.15-5.3-4.37-1.88-9.37-.6-13.75-2.25-1.27-1.74.83-2.95 2.23-3.39ZM701.33 198.46c4.97-1.42 12.34.11 14.01 5.63-.64 3.32-4.4.19-6.3-.28-3.89-2.2-7.99.35-11.95.75-3.06-2.63 1.73-5.65 4.24-6.1ZM483.54 223.57c4.46-7.75 16.5-9.26 22.93-3.13 1.06 1.14 2.44 3.45.57 4.49-4.11.22-7.89-2.39-12.05-2.13-3.98.01-7.19 2.6-10.35 4.67-1.26-.91-2.15-2.46-1.1-3.9m1.44.96c2.92-1.41 5.7-3.46 9.05-3.71 4.22-.34 8.21 1.38 12.27 2.26-5.51-6.64-16.54-5.42-21.32 1.45ZM494.38 236.45c4.12-1.85 8.8 2.97 7.03 7.05-1.1 3.4-5.62 4.62-8.37 2.42-3.44-2.3-2.58-8.19 1.34-9.47ZM538.36 236.47c4.07-1.83 8.91 2.79 7.14 6.91-.96 3.16-4.96 4.7-7.76 2.91-3.93-1.9-3.54-8.45.62-9.82ZM520.58 249.69c.49-.2 1.45-.58 1.94-.77 2.79 5.13 5.42 10.53 5.8 16.47 2.13.68 4.14 1.71 5.51 3.56-1.2.98-2.48 1.84-3.92 2.42.2-.8.58-2.4.78-3.2-1.6-.39-3.19-.77-4.77-1.15.79-6.3-2.46-12.01-5.34-17.33ZM714.6 266.7c3.38-1.54 7.32-1.78 10.96-1.13 3.09.62 5.85 3.12 6.14 6.36.45 6.06-.03 12.14.28 18.21-6.8-4.05-16.03-5.05-22.46.27.41-5.5 1.37-10.95 1.53-16.46.07-2.76.83-5.95 3.55-7.25m-1.26 4.86c-.63 4.92-.57 9.92-1.45 14.82 5.77-2.5 12.26-1.89 18 .35-.14-4.89.24-9.81-.19-14.69-.45-3.6-4.49-5.09-7.68-4.79-3.23.08-7.9.38-8.68 4.31Z"/><path d="M713.98 275.01c3.09.78 4.17 5.36 8.02 4.22 3.27.45 3.64-4.24 6.78-3.9-.9 5.35-7.55 7.58-11.86 4.73-1.91-.98-2.34-3.2-2.94-5.05ZM568.44 338.45c3.74-1.21 8.12 2.49 6.76 6.42-1.03 4.16-7.24 4.92-9.48 1.38-2.25-2.63-.54-7.01 2.72-7.8ZM607.39 338.59c4.18-1.85 9.21 3.33 6.62 7.33-1.93 3.64-7.92 3.28-9.55-.42-1.38-2.55.15-6.11 2.93-6.91ZM815.44 338.64c2.92-1.47 6.53 1.13 6.2 4.34-.03 3.61-5.15 5.72-7.5 2.81-2.33-2.02-1.53-6.06 1.3-7.15ZM855.09 343.18c2.77-1.56 6.59.7 6.49 3.9.31 3.56-4.54 5.91-7.16 3.52-2.56-1.77-2.12-6.14.67-7.42ZM581.41 368.35c3.42-6.49 4.94-13.77 5.97-20.98l1.97.54c-.98 6.1-2.1 12.25-4.53 17.97-1.59 3.99-4.28 7.39-6.38 11.1 2.33 3.8 6.94 5.63 11.19 4.1.59.34 1.78 1.01 2.37 1.34 1.02-.59 2.05-1.18 3.09-1.76l-.64 2.81c-2.15 2.04-4.93-.62-7.43.05-4.4.5-9.17-2.37-10.36-6.69.86-3.18 3.26-5.6 4.75-8.48ZM390.43 379.53c3.96-1.52 8.81 2.29 7.74 6.54-.81 4.71-7.58 5.82-10.37 2.24-2.65-2.77-1-7.84 2.63-8.78ZM428.55 379.71c4.44-2.29 10.32 3.11 7.7 7.62-1.83 4.33-8.87 4.02-10.67-.18-1.38-2.72.07-6.44 2.97-7.44ZM844.56 386.23c1.72.51 3.87.81 4.52 2.81-.14 1.17-.32 2.34-.54 3.51-.43-.07-1.3-.19-1.74-.25.04-.83.1-2.5.14-3.33-.68-.17-2.02-.5-2.69-.67.08-.52.23-1.55.31-2.07ZM577.4 394.19c1.92-.45 2.79 1.64 4.12 2.57 1.88-.69 3.51-1.93 5.46-2.45 2.89 1.62 5.6 3.83 9.17 3.18-1.76 4.11-3.41 8.92-7.74 10.97-3.89 1.43-8.58 1.54-12.29-.45-2.96-1.81-2.87-5.57-3.11-8.6 1.39-1.8 2.63-3.76 4.39-5.22m-2.25 5.45c4.98 3.42 11.3 2.27 16.53.09-1.55-1.14-3.1-2.25-4.63-3.39-1.93.94-3.77 2.36-5.99 2.45-1.34-.24-2.04-1.65-3.04-2.43-.96 1.09-1.92 2.18-2.87 3.28m-.34 2.64c.79 5.42 6.98 5.73 11.23 4.89 3.11-.48 4.76-3.42 6.47-5.71-5.53 2.68-11.95 3.13-17.7.82ZM415.44 395.68c.47.18 1.41.54 1.88.71.65 5.29.82 10.68.19 15.98 1.01 2.17 1.95 4.36 2.85 6.58l-1.31.08c1.25.04 2.51.09 3.77.15l-1.53-1.56c2.77.34 4.99 3.83 3.68 6.45-1 .62-2.05 1.16-3.13 1.63.09-1.43.66-2.63 1.72-3.59-.77-1.22-1.85-2.14-2.98-2.98-.09 1.8.29 3.93-1.07 5.4-2.07 2.6-5.71 2.47-8.69 2.87.03-.5.1-1.5.13-2 2.69-.46 6.71-.12 7.66-3.42.28-3.62-2.55-6.51-3.1-9.9.72-5.45.2-10.94-.07-16.4ZM399.08 421.08c.93-2.55 3.64-3.61 5.81-4.87.19.45.56 1.35.75 1.8-1.75 1.27-4.87 2.21-4.73 4.83.33.6.98 1.8 1.31 2.4 1.64-1.73 3.64-4.37 6.32-2.83 2.03 1.38.11 3.58-1.59 4.04-1.83.22-3.69.13-5.52 0-1.91-.82-3.21-3.39-2.35-5.37m6.35 2.99c.04 3.36 2.96-1.48 0 0ZM405.52 430.72c9.2-1.24 18.97-.79 27.5 3.19 1.97 1.18 4.08 3.58 3.2 6.03-1.24 1.46-3.17 1.16-4.65.3-10.1-4.89-22.54-5.63-32.66-.43-1.51.63-3.19 1.88-4.84.92-2.13-.91-3.7-4.46-1.27-5.93 3.72-2.56 8.35-3.33 12.72-4.08m-12.24 6.11c.44.62 1.31 1.86 1.75 2.48 4.72-2.26 9.62-4.4 14.91-4.84 8.56-1.15 17 1.36 24.76 4.74-1.8-4.99-7.85-5.36-12.25-6.45-9.75-1.27-20.44-.93-29.17 4.07ZM812.8 555.27c-3.88-3.51-1.84-10.8 3.28-11.83 3.25-.9 6.2 1.04 8.3 3.32 2.86-2.1 7.02-2.46 9.7.15 3.97 3.12 2.51 10.28-2.32 11.69-3.27 1.36-6.47-.55-8.69-2.84-3.23 1.53-7.46 2.24-10.27-.49m3.57-9.83c-3.52.83-4.91 5.99-2.1 8.36 1.87 1.97 4.73 1.18 7.04.63.22-1.55.45-3.1.7-4.63-1.66-.19-3.31-.35-4.96-.5a35.27 35.27 0 0 0 2 4.16c-1.73-.62-4.33-1.56-3.44-3.92.47-2.69 3.52-1.36 5.17-.67.39-.47 1.15-1.42 1.54-1.89-1.87-.82-3.82-2.19-5.95-1.54m10.92 1.99c-3.39 1.25-4.01 6.41-1.03 8.45 2.65 2.43 7.54.69 8-2.91 1.08-3.85-3.54-7.19-6.97-5.54ZM845.9 543.69c10.17 1.48 20.32 3.04 30.49 4.55-1.01 6.99-2.03 13.97-3.17 20.93-10.16-1.42-20.27-3.08-30.43-4.49 1-7.01 2.1-13.99 3.11-20.99m1.65 2.31c-.75 5.65-1.66 11.29-2.5 16.93 8.84 1.36 17.69 2.65 26.53 4 .88-5.66 1.66-11.34 2.56-16.99-8.87-1.3-17.72-2.73-26.59-3.94Z"/><path d="M853.21 549.26c5.36.11 10.85.91 15.98 2.6-.29 2.52-.7 5.4-3.69 5.95-.53 1.97-.1 4.48-1.74 5.98-1.9.51-3.74-.41-5.52-.91.27-2.47.5-4.95.53-7.43-1.5 2.26-.77 5.7-2.92 7.44-1.81-.11-5.4-.08-5.04-2.74.74-3.55.1-7.97 2.4-10.89m.92 1.77c-.64 3.21-.98 6.47-1.14 9.74.58-.03 1.74-.11 2.32-.14.41-3.09.86-6.16 1.35-9.23-.63-.09-1.9-.28-2.53-.37m4.92.72-.36 2.26c.67.18 2.01.54 2.69.72-.4 2.27-.78 4.55-1.15 6.84.65.11 1.96.33 2.62.43.3-2.21.63-4.42.98-6.63 1.62-.13 3.14-.51 3.37-2.38-2.72-.44-5.44-.84-8.15-1.24Z"/></g><g fill="#f0c7b3"><path d="M621.28 109.94c-.12-4.18 6.65-5.02 7.5-.92 1.1 10.76 1.39 21.61 2.26 32.4.8-.05 2.4-.16 3.2-.21-.46-8.07-1.13-16.13-1.5-24.19-.45-2.97 3.27-5.25 5.74-3.63 1.78.77 1.96 2.85 2.06 4.53.67 10.67 1.34 21.34 2.06 32.02.94-1.18 2.26-2.15 2.76-3.61-.3-2.3-1.78-4.64-.89-6.98 1.25-3.01 6.04-3.65 7.8-.79 1.37 3.03 2.16 6.3 2.97 9.51.82 2.26-.78 4.37-2.04 6.1-3.11 3.45-6.59 6.55-9.72 9.98.4 6.33.86 12.65 1.19 18.99-13.54.91-27.07 1.85-40.6 2.81-1.27-18.99-2.44-37.99-3.67-56.98-.15-1.72-.03-4.11 1.82-4.88 2.25-1.68 5.67.3 5.78 2.98.56 5.22.64 10.49 1.07 15.74.8-.06 2.41-.17 3.21-.22-.55-10.21-1.45-20.4-1.86-30.61-.37-4.32 6.88-5.18 7.48-.85 1.04 10.28 1.37 20.64 2.13 30.96.81-.05 2.44-.14 3.25-.18-.64-10.66-1.49-21.31-2-31.97ZM877.59 124.08c.37-2.87 4.39-4.09 6.43-2.09 1.48 1.27 1.14 3.33 1.02 5.05-.97 9.87-1.81 19.75-2.86 29.61 1.09.11 2.18.21 3.28.33 1.03-10.31 1.78-20.66 3.01-30.94.83-4.05 7.77-3.33 7.48.87-.66 10.26-1.87 20.49-2.8 30.74 1.06.13 2.14.25 3.23.39.73-5.59.68-11.3 1.84-16.81 1.21-3.99 8.04-2.41 7.35 1.73-1.73 19.45-3.66 38.88-5.48 58.33-13.51-1.38-27.02-2.7-40.52-4.06.55-6.25 1.13-12.49 1.79-18.73-3.23-4.03-7.21-7.44-10.18-11.67-2.94-4.07.4-8.89 1.51-13.03.86-3.38 5.91-4.2 7.78-1.29 2.01 2.53.03 5.62-.6 8.29.93 1.02 1.87 2.04 2.82 3.07 1.17-11.25 1.98-22.54 3.3-33.77.8-4.14 7.85-3.37 7.55.92-.61 8.23-1.51 16.44-2.29 24.65 1.06.08 2.13.17 3.21.26 1.18-10.6 1.87-21.26 3.13-31.85Z"/></g><g fill="#714e30"><path d="M732.98 134.11c8.82-2.08 17.83-4.14 26.96-3.65 4.17.31 8.93 1.38 11.32 5.19 4.12 6.29 10.45 10.69 17.12 13.94 8.94 4.62 18.3 8.54 26.64 14.25 3.61 2.46 7.04 6.39 6.16 11.11-1.09 6.01-3.21 11.84-5.87 17.33-4.3 8.05-12.81 12.19-19.22 18.23-2.51-.12-5.02-.28-7.51-.47-.41-3.09-.82-6.33-2.79-8.87-3.1-4.23-7.67-7.02-11.52-10.48-5.89-4.77-11.7-10.41-19.32-12.13-5.68-1.29-9.96 3.34-14.59 5.69-6.34 3.28-13.78 6.43-20.97 4.29-6.22-3.11-10.07-9.25-14.45-14.37-4.73-2.5-10.15-4.12-13.91-8.13-1.15-1.31-2.23-3.24-1.26-4.95 1.37-2.1 3.69-3.28 5.7-4.67 5.26-3.26 10.34-7.12 16.42-8.73 3.79-1.08 7.77-.79 11.65-1.32 1.24-.17 2.34-.98 2.38-2.33-.93-2.25-2.36-4.23-3.6-6.29 3.1-2.31 7.03-2.67 10.66-3.64ZM689.37 177.06c-.04-2.72 1.94-4.74 3.53-6.7 2.11 1.19 4.24 2.36 6.38 3.51-2.07 3.71-3.77 7.59-5.34 11.53-2.15-2.35-4.53-4.97-4.57-8.34Z"/><path d="M815.99 194.99c1.62-2.66 2.83-5.54 4.28-8.29.92 4.4.56 8.93-.53 13.26-1.77 7.17-3.2 14.53-6.61 21.14-1.28-.54-2.55-1.09-3.81-1.62-.11-2.94-1.02-5.72-3.01-7.91-.06-2.14-.08-4.28-.09-6.42 3.52-3.11 7.24-6.14 9.77-10.16ZM795.04 238.59c-6.89-4.29-9.46-13.27-7.43-20.89 2.7.18 5.41.35 8.13.51.27 6.25-.36 12.49-.36 18.74 2.42 15.98.89 32.57-4.44 47.83-1.97 5.25-4.22 10.84-8.93 14.24-17.96 13.4-40.7 19.66-62.97 19.09-6.31-.02-12.83-1.25-18.05-4.98-7.55-5.26-11.36-14.41-12.36-23.3-.51-5.11-.5-10.62 2.18-15.18 4.64 3.14 9.01 6.65 13.45 10.08.56-7.58 1.25-16.68 8.13-21.39 7.23-4.15 18.96-2.68 22.43 5.72 1.36 5.77 2.15 11.68 3.32 17.5 9.04-3.56 18.44-6.14 27.94-8.15 6.9-1.33 13.2-5.26 17.53-10.77 6.55-8.31 9.97-18.67 11.43-29.05M714.6 266.7c-2.72 1.3-3.48 4.49-3.55 7.25-.16 5.51-1.12 10.96-1.53 16.46 6.43-5.32 15.66-4.32 22.46-.27-.31-6.07.17-12.15-.28-18.21-.29-3.24-3.05-5.74-6.14-6.36-3.64-.65-7.58-.41-10.96 1.13Z"/></g><g fill="#feac70"><path d="M460.65 142.22c2.62-2.94 6.25-5.25 10.33-5.11 4.02-.23 7.5 2.09 10.42 4.6-4.68 2.3-9.78-.8-14.52 1.09-3.01.86-5.33 3.05-7.47 5.21-2.68-1.49-5.6-2.45-8.59-3.03 2.89-2.01 6.33-2.81 9.83-2.76ZM484.16 141.49c2.81-2.26 6.01-4.5 9.8-4.38 3.37-.26 6.4 1.37 9.14 3.12-4.31-.04-8.54 1.16-11.98 3.8-2.24-1.05-4.59-1.87-6.96-2.54ZM503.75 140.34c4-3.32 9.51-4.05 14.34-2.2-2.98 1.12-5.76 2.7-8.09 4.87-2.05-.97-4.14-1.85-6.25-2.67Z"/><path d="M510.38 146c3.28-5.01 10-7.34 15.61-5.09 4.76 1.65 7.74 6.34 8.31 11.2 6.27-1.71 13.21 1.41 15.87 7.38 4.51-.2 9.46 1.2 12.16 5.06 2.06 2.57 2.49 5.93 2.5 9.12 5.22.27 10.5 3.23 12.29 8.34 2.4 6.16-1.42 13.63-7.65 15.6-3.67 1.36-7.69.62-11.1-1.09-3.18 5.37-9.98 8.27-15.96 6.03-2.97-.99-5.24-3.21-7.14-5.6-5.6 1.49-11.62-.81-14.92-5.52-4.76 4.55-12.32 5.22-17.73 1.43-3.44 6.72-12.24 9.14-18.72 5.37-1.87 5.65-7.47 9.16-13.32 9.06-1.77 3.45-4.8 6-8.45 7.26-1.37 4.54-4.91 8.01-9.39 9.5 3.21 6.34.01 14.71-6.76 17.04-7.31 3.08-16.19-1.99-17.37-9.81-6.48 1.22-13.71-2.61-15.19-9.26-1.61-5.83 2.1-11.53 7.12-14.23-2.89-4.74-2.3-10.89 1.37-15.03-1.11-3.33-2.03-7.04-.47-10.4 1.17-3.3 4.07-5.48 7.02-7.13 1.78-4.84 5.96-8.3 11.04-9.22-2.54-4.7-2.38-10.99 1.65-14.82 4.85-5.28 13.7-5.09 18.68-.07 2.04-2.74 4.41-5.61 7.88-6.48 2.99-1 6.18-.43 9.16.38 4.83-1.97 10.28-1.43 14.57 1.57 4.98-5.28 13.64-5.56 18.94-.59Z"/><path d="M430.03 155.99c1.9-2.03 4.73-2.62 7.26-3.47-1.52 3.9-2.02 8.13-.73 12.18-4.38 1.51-7.8 4.87-9.72 9.05-6.82 3.3-10.04 11.64-7.27 18.69-3.11 4.23-3.66 9.77-1.75 14.62-5.67 3.71-8.51 11.4-5.6 17.71 2.35 5.83 8.68 8.93 14.75 8.75 1.57 3.73 4.01 7.11 7.72 8.94-3.97 1.55-7.35 4.4-9.11 8.33-4.23-.21-8.75-1.54-11.3-5.16-2.07-2.45-2.4-5.73-2.55-8.8-4.21-1.72-8.17-5.08-8.81-9.82-.83-3.72.79-7.34 2.88-10.32-5.14-2.4-8.61-8.3-7.09-13.95.73-3.73 3.62-6.39 6.65-8.39-1.57-3.93-1.78-8.66.82-12.22 2.23-3.54 6.34-5.22 10.34-5.75-2.77-6.7 1.36-15.02 8.52-16.49 2.33-.28 3.45-2.43 4.99-3.9ZM547.53 205.4c4.53-.37 8.52-2.74 11.37-6.2 3.64 1.19 7.49 1.34 11.23.54 2.35 5.68.32 12.39-4.86 15.71 2.51 2.88 4.47 6.57 3.82 10.51-.26 3.41-2.5 6.15-4.86 8.42.66 3.07 1.08 6.43-.42 9.34-1.86 4.32-6.25 6.89-10.77 7.49-.08-5.25-.23-10.49-.34-15.74 3.44-1.5 1.71-4.81-.11-6.84-.19-8-1.94-15.87-5.06-23.23ZM484.98 224.53c4.78-6.87 15.81-8.09 21.32-1.45-4.06-.88-8.05-2.6-12.27-2.26-3.35.25-6.13 2.3-9.05 3.71Z"/><path d="M410.97 244.8c3.19 4.72 8.3 8 14.13 7.98-.4 5.74.72 11.73 4.12 16.48v.4c-1.64 4.08 3.45 9.24 6.85 5.37.3-.29.91-.88 1.21-1.18-.18-.45-.56-1.36-.75-1.81-.57-1.49-1.08-3.01-1.56-4.53 1.6 1.5 3.12 3.09 4.49 4.8-1.82 4.91-.81 10.17-.93 15.27-3.7.88-7.81 1.16-11.18-.91-3.54-1.72-5.45-5.37-6.45-9.01-6.61 1.23-14-2.88-15.22-9.72-1.25-5.66 2.19-11.36 7.32-13.7-1.65-2.88-2.18-6.15-2.03-9.44Z"/></g><path fill="#6750aa" d="M688.97 166.95c1.49.32 3.26 2.09 1.49 3.34-.88-.92-1.38-2.04-1.49-3.34Z"/><g fill="#ac6644"><path d="M320.53 175.85c-.62-2.27.97-4.86 3.42-4.86 2.32-.41 4.16 1.66 4.23 3.84 1.6 10.2 3.01 20.44 4.59 30.65.79-.13 2.37-.37 3.16-.5-1.06-8-2.5-15.96-3.47-23.97-.62-2.58 2.02-5.05 4.57-4.35 2.34.3 3 2.91 3.29 4.86 1.56 10.37 3.04 20.75 4.64 31.12.9-.96 1.79-1.91 2.69-2.86-.7-2.27-1.85-4.5-1.8-6.92.58-3.65 6.06-4.97 8.01-1.72 1.72 3.45 3.27 7.1 3.93 10.91-1.74 6.05-7.19 10.05-10.7 15.08.95 6.25 1.85 12.51 2.81 18.77-13.45 2.01-26.87 4.25-40.35 6.11-2.69-19.37-5.9-38.67-8.47-58.06-.69-3.91 5.48-5.68 7.09-2.1 1.6 5.45 1.75 11.23 2.84 16.81l3.2-.4c-1.4-9.8-3-19.56-4.33-29.37-.43-1.87.22-4.09 2.17-4.78 2.36-1.23 5.28.7 5.38 3.28 1.59 9.85 2.92 19.75 4.44 29.62l3.14-.28c-1.31-10.32-3.08-20.58-4.48-30.88ZM503.34 195.68c5.39 2.6 11.77 2.08 16.71-1.26 3.77 3.83 9.15 5.53 14.46 4.84 2.73 3.39 6.71 5.12 10.75 6.4 3.31 6.67 4.81 14.12 5.29 21.52-5.45-2.56-12.34-2.8-17.28 1.02-1.68 1.31-3.68 3.6-2.34 5.83 2.87.96 5.35-1.41 8.05-2.02 4-1.5 8.1.35 11.67 2.12.41 17.63.87 35.27.59 52.9-.3 9.89.41 20.52-4.86 29.36-6.21 10.92-18.54 16.67-30.57 18.39-.17 6.41-.95 12.81-.59 19.23-.05 3.81.54 8.12-1.74 11.44-3 2.88-7.5 2.87-11.39 2.78-11.01-.7-21.71-4.02-31.78-8.41-1.99-.69-3.39-2.24-4.47-3.96 2.25-3.79 1.63-8.45-1.25-11.72 1.2-4.86-1.31-9.74-5.92-11.61.8-5.27-2.59-10.15-7.77-11.3-.42-2.56-.88-5.36-2.95-7.15-1.82-2.01-4.63-2.26-7.13-2.71-.22-12.62-.38-25.24-.4-37.85-.24-.3-.72-.9-.96-1.21-1.37-1.71-2.89-3.3-4.49-4.8.48 1.52.99 3.04 1.56 4.53-5-1.15-7.67-6.22-8.8-10.83-1.22-4.67-1.17-10.39 2.67-13.88 3.54-3.48 8.72-3.46 13.34-3.62 8.56-.99 14.28-10.34 11.74-18.49 3.67-1.94 6.72-4.91 8.13-8.87 3.19-1.67 6.06-3.91 8.06-6.94 5.5-.55 10.59-3.4 13.35-8.28 3.56.82 7.4 1.42 10.91.02 3.01-.94 5.25-3.29 7.41-5.47m-19.8 27.89c-1.05 1.44-.16 2.99 1.1 3.9 3.16-2.07 6.37-4.66 10.35-4.67 4.16-.26 7.94 2.35 12.05 2.13 1.87-1.04.49-3.35-.57-4.49-6.43-6.13-18.47-4.62-22.93 3.13m10.84 12.88c-3.92 1.28-4.78 7.17-1.34 9.47 2.75 2.2 7.27.98 8.37-2.42 1.77-4.08-2.91-8.9-7.03-7.05m43.98.02c-4.16 1.37-4.55 7.92-.62 9.82 2.8 1.79 6.8.25 7.76-2.91 1.77-4.12-3.07-8.74-7.14-6.91m-17.78 13.22c2.88 5.32 6.13 11.03 5.34 17.33 1.58.38 3.17.76 4.77 1.15-.2.8-.58 2.4-.78 3.2 1.44-.58 2.72-1.44 3.92-2.42-1.37-1.85-3.38-2.88-5.51-3.56-.38-5.94-3.01-11.34-5.8-16.47-.49.19-1.45.57-1.94.77m-4.39 9.48c-.33 1.66-.6 3.33-.84 5.01-1.59.83-4.61 1.4-3.82 3.9.88 1.47 2.35 3.9 4.23 2.01-.89-1.07-1.78-2.13-2.67-3.19 1.81-.18 3.63-.33 5.45-.47-.79-2.41-.53-5.3-2.35-7.26m2.83 10.12c-1.95.35-1.3 3.61.69 2.91 1.9-.38 1.2-3.49-.69-2.91m4.46.36c-2.66.57-.08 3.82 1.46 2.47 2.43-.67-.06-4.48-1.46-2.47m10.93 20.86c-4.55 1.26-8.58 4.23-13.39 4.56-7.35.41-13.66-5.55-21.07-4.22-3.3.7-3.53 4.81-2.3 7.33 4.23 9.36 15.29 14.69 25.3 12.9 7.17-1 14.64-4.32 18.28-10.9 1.62-2.93 2.33-7.39-.77-9.62-1.92-.78-4.09-.47-6.05-.05Z"/></g><g fill="#edab89"><path d="M701.3 174.45c3.56 1.43 5.03 5.18 7.55 7.79 3.8 4.09 8.02 9 14.11 9.01 9.43.2 17.96-4.69 25.63-9.67 4.45-2.74 9.66-.18 13.61 2.28 6.69 4.45 12.55 9.99 18.78 15.04 3.46 2.67 5.39 6.8 5.64 11.13-14.35-.84-28.73-1.19-43.06-2.35-16.94-.41-33.86-1.66-50.8-2.36 0-10.83 3.01-21.57 8.54-30.87m45.07 21.1c-1.4.44-3.5 1.65-2.23 3.39 4.38 1.65 9.38.37 13.75 2.25 3.45 1.05 5.62 4.5 9.15 5.3 1.86-1.7.07-3.96-1.14-5.41-4.94-5.04-12.68-7.4-19.53-5.53m-45.04 2.91c-2.51.45-7.3 3.47-4.24 6.1 3.96-.4 8.06-2.95 11.95-.75 1.9.47 5.66 3.6 6.3.28-1.67-5.52-9.04-7.05-14.01-5.63ZM798.68 210.56c1.74-1.43 3.61-2.68 5.56-3.82-.01 1.42 0 2.84.01 4.26-1.87-.15-3.72-.28-5.57-.44ZM731.5 215.82c2.08 7.45 7.07 14.25 14.24 17.45 9.12 4.56 20.86 2.68 28.26-4.28 3.45-3.04 5.72-7.16 7.31-11.43 1.36.01 2.73.02 4.11.04-1.78 8.16.98 16.93 7.45 22.28-1.84 10.02-5.09 20.26-12.08 27.92-3.65 4.08-8.47 7.18-13.86 8.33-9.21 2.04-18.4 4.34-27.25 7.64-1.26-5.38-1.51-11.02-3.31-16.25-4.16-8.66-16.14-10.31-24.14-6.37-7.04 3.79-9.13 12.4-9.64 19.78-3.42-2.72-6.93-5.32-10.45-7.91-.25-14.31-.2-28.63.08-42.94 10.8 5.93 25.41 2.92 32.71-7.09-2.04 4.77-4.37 9.61-4.57 14.89-.24 4.43-.52 8.87-1.63 13.18-.76 2.37.81 5.18 3.3 5.59 3.01.4 6.08.18 9.12.02 1.4.19 2.3-.88 3.17-1.79-4.08-.67-8.24.48-12.28-.33-2.15-.29-1.4-3.02-1.08-4.45 1.38-5.09.95-10.42 1.82-15.58 1.67-6.73 4.83-12.99 8.72-18.7Z"/><path d="M797.78 218.27c1.99.11 3.99.2 6 .28.16.44.47 1.33.62 1.78 4.2.76 8.9 2.15 11.15 6.13 2.93 5.36 1.58 11.98-.79 17.29-2.03 4.42-6.44 7.1-11.13 7.85-.3 26.67-.75 53.35-1.03 80.02-22.36 13.78-51.87 14.9-75 2.32 0-4.64.15-9.28.17-13.92 19.68-1.1 39.24-7.42 55.15-19.18 5.52-3.97 8.24-10.5 10.35-16.72 5.04-15.13 6.51-31.47 4.11-47.25.05-6.19.57-12.39.4-18.6ZM713.34 271.56c.78-3.93 5.45-4.23 8.68-4.31 3.19-.3 7.23 1.19 7.68 4.79.43 4.88.05 9.8.19 14.69-5.74-2.24-12.23-2.85-18-.35.88-4.9.82-9.9 1.45-14.82m.64 3.45c.6 1.85 1.03 4.07 2.94 5.05 4.31 2.85 10.96.62 11.86-4.73-3.14-.34-3.51 4.35-6.78 3.9-3.85 1.14-4.93-3.44-8.02-4.22Z"/></g><path fill="#775645" d="M729.19 215.24c.53.52.53.52 0 0Z"/><path fill="#ffac70" d="M532.12 232.44c4.54-7.23 16.76-6.8 21.06.46-3.37-1.21-6.55-3.16-10.18-3.42-3.89-.33-7.31 1.83-10.88 2.96Z"/><g fill="#4175b1"><path d="M303.48 255.12c18.06-2.85 36.13-5.61 54.2-8.35 2.61 17.23 5.23 34.45 7.97 51.65-3.6-1.72-7.72-1.37-10.98.91-3.7-2.47-8.36-2.62-12.13-.21-3.57-2.55-8.57-3.65-12.41-1.03-3.19 1.82-4.53 5.42-4.87 8.9-5.93 1.17-9.73 7.13-8.34 13.02-.96 1.19-1.94 2.38-2.9 3.58-3.46-22.83-6.96-45.66-10.54-68.47ZM521.3 345.36c3.92 1.76 7.91 3.4 11.66 5.52 4.1 2.34 6.91 6.25 9.49 10.09-1.63 5.05-2.64 10.27-3.15 15.55-6.7-8.88-9.76-20.44-18.86-27.42.25-1.26.56-2.5.86-3.74ZM477.3 366.03c9.4 2.51 18.88 5.68 28.74 5.11 2.73-.06 5.28-1.1 7.79-2.07-3.08 3.79-8.4 3.74-12.83 3.45-8.19-.81-16.21-3.1-23.7-6.49ZM473.98 390.67c6.74 5.14 15.11 8.6 23.73 7.16.16.21.5.63.66.84.67 3.52.77 7.17-.4 10.6-.56-1.85-.75-3.85-1.71-5.53-1.65-1.86-3.89-3.02-5.93-4.36.97 5.77 2.14 11.51 3.18 17.27 1.09.27 2.19.55 3.29.84 1.05 1.8 2.12 3.59 3.19 5.4 1.35-1.6 2.71-3.19 4.07-4.78.76-.09 2.28-.29 3.04-.39 1.4-5.51 2.87-11.01 4.07-16.57-4.66.18-6.24 4.51-8.06 8.01-1.5-4.18-1-8.77 1.35-12.52 2.53 1.33 5.28 2.53 7.15 4.8 4.73 5.37 6.22 13.37 12.58 17.31 5.35 3.5 12.13-.72 17.54 2.44 2.38 1.28 3.6 3.8 5.03 5.97-4.94 9.94-5.58 21.17-7.17 31.97-.92 5.61-2.28 11.79-6.86 15.62-4.11 3.47-9.69 3.97-14.83 4.37 9.31 9.68 22.01 15.59 35.11 17.97-2.53 13.04-4.86 26.13-7.15 39.22-8.99.65-17.98 1.22-26.97 1.82-2.86.45-5.32-1.25-7.8-2.34-28.26-13.56-56.61-26.9-84.83-40.53 1.28-5.37 2.67-10.7 4.16-16 .33-2.01 2.32-2.9 3.73-4.09 4.55-3.23 7.95-7.79 10.6-12.65 4.95-.06 10.79-1.84 14.94 1.8 6.15 5.92 5.52 15.64 11.03 21.97 2.79 3.19 7.53 3.13 11.27 1.93 9.59-2.7 17.08-10.67 20.24-19.98 1.65-5.04 3.29-10.69 1.19-15.85-3.43-9.2-8.94-18.15-17.45-23.42-3.55-2.29-7.77-3.12-11.89-3.68 3.05-2.53 3.6-6.59 2.79-10.28 2.56-2.27 4.9-5.4 4.23-9.04-.13-3.36-2.92-5.49-5.4-7.29.2-2.8-.3-5.57-1.72-8.01ZM412.71 484.27c5.46-.99 10.73-2.82 15.71-5.28-1.38 4.93-2.69 9.88-3.92 14.85-3.63-3.54-7.63-6.68-11.79-9.57ZM447.5 630c1.29-19.21 2.59-38.42 3.88-57.63 17.27 8.44 34.76 16.42 51.98 24.95.36-.44 1.07-1.33 1.43-1.78 9.87 3.13 20.22.65 30.3.43-2.15 11.35-4.15 22.74-6.65 34.03H447.5Z"/></g><g fill="#984c3f"><path d="M584.38 266.34c8.16-6.87 19.11-9.68 29.63-9.26 14.87.55 29.23 5.66 42.19 12.74 3.65 1.86 7.89 2.44 11.24 4.9 6.35 4.48 10.34 11.54 13.15 18.63 5.75 14.78 7.45 30.72 8.69 46.41 2.61 30.04 3.86 60.17 5.72 90.25.83 10.21 1.31 20.61 4.38 30.46 1.26 4.83 5.64 7.68 8.46 11.53 6.35 7.87 12 17.45 11.34 27.93-.66 10.59-8.9 18.93-17.84 23.65-3.07-2.45-6.32-4.65-9.65-6.71.56-5.77.08-12.11-3.86-16.69-6-7.26-15.67-9.75-24.56-11.27-.14-3.7-1.14-7.3-1.33-10.97.75-6.39 5.5-11.14 8.5-16.53.87-1.35.94-3.38-.49-4.38-3.14-2.57-7.73-1.86-11.13-.19-4.91 2.63-8.47 7.13-11.37 11.77-1.61.81-3.23 1.62-4.83 2.44-1.93-12.05-.32-24.25 1-36.26 2.77-23.25 5.25-46.97 1.02-70.21-1.82-11.04-6.07-21.43-9.17-32.13-3.17-10.45-5.9-21.05-7.55-31.85-2.28 1.81-4.22 4.08-6.75 5.54-3.61 1.19-7.49.76-11.14.01-.43-2.7.09-6.1-2.35-7.98-5.1-3.79-13.22-4.24-17.71.78-2.84 2.44-4.73 7.55-9.31 6.26 1.17-3.84 4.2-6.52 7.08-9.1-3.81-.94-7.92-1.47-11.68-.04-7.49 2.54-12.56 8.89-18.53 13.69-.06-3.94-.9-7.99.03-11.87 2.64-6.59 7.96-11.57 12.52-16.84 4.79-4.88 9.1-10.24 14.3-14.71Z"/><path d="M558.52 311.57c1.46-1.24 2.9-2.49 4.36-3.74-4.09 10.97-4.03 22.81-5.29 34.3-1.75 21.26-3.98 42.54-3.89 63.9-1.59-10.4-11.16-17.54-12.06-28.13-.49-7.71 2.36-15.09 4.7-22.3 4.98-14.4 9.99-28.89 12.18-44.03ZM553.04 417.99c1.28-4.02 1.29-8.27 1.15-12.44 1.25 5.45 4.31 10.24 7.9 14.45 6.31 7.16 13.72 13.31 21.8 18.39.13 6.86-.99 13.71-.26 20.57.69 9.98.55 21.3-6.34 29.3-6.11 7.23-16.58 8.19-25.34 6.56-10.67-2.13-21.09-6.66-29.24-13.97 3.79-.88 7.78-1.71 10.9-4.21 4.57-3.49 6.48-9.3 7.54-14.74 1.68-9.3 1.99-18.9 5-27.94 1.71-5.57 5.28-10.36 6.89-15.97Z"/></g><path d="M516.19 259.17c1.82 1.96 1.56 4.85 2.35 7.26-1.82.14-3.64.29-5.45.47.89 1.06 1.78 2.12 2.67 3.19-1.88 1.89-3.35-.54-4.23-2.01-.79-2.5 2.23-3.07 3.82-3.9.24-1.68.51-3.35.84-5.01ZM534.41 290.51c1.96-.42 4.13-.73 6.05.05 3.1 2.23 2.39 6.69.77 9.62-3.64 6.58-11.11 9.9-18.28 10.9-10.01 1.79-21.07-3.54-25.3-12.9-1.23-2.52-1-6.63 2.3-7.33 7.41-1.33 13.72 4.63 21.07 4.22 4.81-.33 8.84-3.3 13.39-4.56m-3.98 3.66c.7 1.44 1.38 2.89 2.08 4.35 1.26-.8 2.54-1.58 3.82-2.36-.55-1.24-1.1-2.47-1.64-3.69-1.43.55-2.85 1.12-4.26 1.7m7.66.43c1.26.12 1.93-.43 2.02-1.64-1.21-2.89-5.27.33-2.02 1.64m-38.75-1.73c2.27 2.59 5.02 4.7 7.98 6.46.33-1.82.66-3.63 1-5.45-2.9-.94-5.93-1.61-8.98-1.01m10.91 1.75c-.33 1.82-.66 3.65-1.02 5.46 1.81.52 3.63 1.01 5.46 1.49.07-1.74.15-3.48.21-5.22-1.55-.59-3.1-1.17-4.65-1.73m13.29 2.13c.45 1.59.91 3.2 1.37 4.8 1.94-.64 3.87-1.32 5.79-2.03-.65-1.49-1.29-2.98-1.93-4.46-1.74.58-3.49 1.15-5.23 1.69m15.99 2.17c.98-.72 1.25-1.65.82-2.8-1.48-.84-2.44 2.58-.82 2.8m-40.84-3.33c1.15 3.25 3.19 6.03 5.7 8.36.69-.95 1.37-1.91 2.05-2.87-2.73-1.61-5.28-3.52-7.75-5.49m18.02 6.19c2.05.06 4.1.05 6.15-.03-.41-1.51-.84-3.02-1.26-4.51-1.57-.13-3.14-.28-4.69-.42-.06 1.65-.14 3.3-.2 4.96m16.47-1.46c.16 1.66.33 3.32.53 4.99 1.39-1.14 2.76-2.31 4.12-3.5-.32-1.22-.61-2.42-.89-3.63a457.5 457.5 0 0 0-3.76 2.14m-24.89 1.58c-.78 1.12-1.55 2.24-2.31 3.37 2.26 1.37 4.62 2.59 7.13 3.42.51-1.68 1-3.37 1.49-5.06-2.13-.52-4.24-1.07-6.31-1.73m16.91 1.59c-.13 1.78-.27 3.56-.41 5.34 2.29-.69 4.56-1.45 6.83-2.24-.05-1.71-.15-3.42-.24-5.13-2.06.7-4.12 1.39-6.18 2.03m-8.66.31c-.44 1.83-.94 3.64-1.43 5.46 2.52.11 5.06.13 7.59-.08.18-1.8.34-3.6.51-5.4-2.23.06-4.45.07-6.67.02ZM848.09 327.85c6.85-2.45 15.54-2.48 20.87 3.15 1.83 2.48 4.15 5.37 3.28 8.66-3.7-3.09-7.01-7.34-12.23-7.67-5.25-1.26-11.45 3.4-15.82-1.02 1.04-1.31 2.13-2.78 3.9-3.12ZM568.19 327.06c3.91-1.37 11.14-.04 10.92 5.11-2.1.73-4.04-.65-6.03-1.05-3.03-1.05-5.66 1.67-8.64 1.51-2.15-2.45 1.53-4.99 3.75-5.57ZM597.93 331.2c2.98-5.38 10.53-5.51 15.66-3.57 2.18.92 5.81 2.5 4.51 5.47-3.2.36-5.8-2.5-9.05-2.24-3.74-.37-7.54 2.14-11.12.34ZM833.63 350.23l1.91.52c-3.28 4.05-7.22 7.92-8.56 13.13-1.96.88-3.78 2.02-5.03 3.79 2.03 2.53 4.98 3.81 8.18 4.08 1.28-1.64 2.92-2.99 5.02-3.41 2.05.62 1.74 3.13 0 3.91-4.9 2.73-12.63 1.23-14.83-4.33-.13-2.9 2.75-4.17 4.82-5.43 1.88-4.66 4.9-8.77 8.49-12.26ZM377.4 367.3c5.19-2.37 11.22-2.59 16.77-1.5 2.81.67 6.19 1.37 7.51 4.31-.65 1.38-2.09 1.82-3.49 1.42-4.05-.84-8.14-2.42-12.33-1.59-4.74.59-8.26 4.14-12.65 5.67-.29-3.29 1.88-6.22 4.19-8.31ZM815.18 386.1c2.92-.69 6.08.54 8.98-.68 4.15-1.77 7.91 1.28 11.45 3.04 2.98 1.85 6.59 1.67 9.97 1.94-2 3.19-3.8 6.75-7.08 8.83-4.09 2.39-8.95 2.8-13.56 3.25-4.31-.09-5.82-4.85-7.43-8.05-1.01-2.65-3.18-5.4-2.33-8.33m1.73 1.65c.13.46.39 1.38.53 1.84 5.3-.54 10.63-.22 15.95-.1-2.59-1.37-5.46-3.48-8.51-2.16-2.59.89-5.32.86-7.97.42m1.48 3.73c.55 1.13 1.12 2.27 1.7 3.42 7.14-.02 14.43-.18 21.26-2.52-7.58-1.14-15.32-1.29-22.96-.9m2.34 5.47c1.2 1.37 2.05 3.7 4.27 3.53 5.45-.55 11.65-1.09 15.47-5.56-6.46 1.59-13.12 1.95-19.74 2.03ZM405.11 442.48c6.06-2.66 13.23-2.53 19.21.29-.67 2.71-2.06 5.47-4.78 6.6-4.06 1.59-8.99 1.07-12.55-1.47-1.76-1.24-1.82-3.49-1.88-5.42m6.08 1.68c.7.17 2.09.53 2.79.7-.16-.7-.49-2.1-.65-2.8-.69.73-1.4 1.43-2.14 2.1m4.55-1.6c0 .53-.01 1.61-.01 2.14.47-.08 1.39-.25 1.86-.33.01-.38.04-1.13.06-1.51-.48-.08-1.43-.23-1.91-.3m-6.51.72c.53.48.53.48 0 0m-1.93 1.55c-.84 1.27 1.23 2.92 2.25 1.75.81-1.28-1.23-2.94-2.25-1.75m12.86.3c-1.46 2.96 3.33.02 0 0m-9.17 1.4c-.76 1.45 1.77 2.43 2.77 1.58.69-1.43-1.8-2.46-2.77-1.58m4.61 1.61c.98.96 3.42-.18 2.62-1.6-.97-1-3.31.22-2.62 1.6ZM796.84 535.89c3.57-7.87 11.6-13.45 20.23-14.05 11.17-1.5 20.58 6.87 27.04 14.99 10.98-4.29 23.87-5.92 34.91-.97 8.59 3.77 13.53 13.61 12.41 22.76-1.03 5.29-4.54 9.74-8.51 13.22-7.26 6.18-16.04 10.63-25.39 12.54-7.7 1.64-15.06 5.14-20.88 10.47-7.19-10.89-18.89-17.42-30.01-23.61-11.64-7.06-15.8-23.29-9.8-35.35m5.9-5.18c-8.79 9.25-8.8 25.24-.07 34.54 3.86 4.46 9.51 6.56 14.41 9.61 7.44 4.58 14.65 9.87 19.96 16.9 3.81-3.02 8.09-5.38 12.62-7.13 4.94-2.04 10.36-2.47 15.32-4.47 7.26-2.83 14.15-6.94 19.52-12.65 3.52-3.8 6.04-9.11 4.85-14.38-.93-7.39-6.17-13.96-13.25-16.33-10.62-3.59-22.53-1.99-32.6 2.61-4.75-6.52-10.98-12.4-18.7-15.11-7.77-1.83-16.55.55-22.06 6.41Z"/><path d="M807.42 538c10.07 1.61 20.22 2.87 30.26 4.65 2.58 3.42 3.75 7.84 5.92 11.58-2.93 3.08-5.89 6.14-8.71 9.32-10.21-1.5-20.42-3.05-30.63-4.59 1.09-6.98 2.13-13.97 3.16-20.96m1.68 2.31c-.82 5.66-1.7 11.31-2.51 16.97 9.17 1.42 18.36 2.77 27.55 4.14 2.35-2.52 4.66-5.07 6.98-7.61-1.48-3.13-2.96-6.25-4.42-9.38-9.2-1.4-18.4-2.78-27.6-4.12Z"/><path d="M827.49 550.33c1.19-1.34 3.98-.98 4.1 1.06.92 2.07-2.02 4.22-3.64 2.65-1.25-.88-1.06-2.51-.46-3.71Z"/><path fill="#412619" d="M519.02 269.29c1.89-.58 2.59 2.53.69 2.91-1.99.7-2.64-2.56-.69-2.91Z"/><path fill="#4a2c1d" d="M523.48 269.65c1.4-2.01 3.89 1.8 1.46 2.47-1.54 1.35-4.12-1.9-1.46-2.47Z"/><path fill="#f5a66b" d="M429.22 269.66c1.98 1.93 4.3 3.45 6.73 4.76l.12.61c-3.4 3.87-8.49-1.29-6.85-5.37Z"/><g fill="#b99f90"><path d="M831.25 275.29c11.6-3.11 23.8-3.4 35.71-2.29 2.34.23 4.84.29 6.88 1.64 9.39-2.57 19.96-3.19 28.77 1.64 10.47 5.5 16.89 16.11 21.48 26.62 6.66 15.59 9.58 32.4 12.46 49 5.95 21.09 11.18 43.26 7.61 65.24-1.62 9.66-5.73 19.21-13.15 25.82-8.66 7.73-20.73 10.57-32.1 9.99-2.97.18-3.48-3.94-1.6-5.57 2.94-3.03 5.7-6.5 5.84-10.93-6.72 3.32-14.72 5.18-21.93 2.27-2.63-1.9-.03-5.48 2.43-6.07 7.12-2.83 12.89-8.84 14.91-16.29-6.43.98-13.07 1.99-19.48.35.27-1.45.5-2.99 1.57-4.1 7.62-8.96 11.67-20.31 14.49-31.57 2.94-13.02 4.66-26.82 1.44-39.95-1.51-6.18-5.71-12.82-12.64-13.41-14.84-1.57-29.88-9.27-37.31-22.63-6.67.8-12.89 3.94-17.55 8.77.38-3.64 2.33-6.75 4.38-9.67-7.07-.04-12.99 4.22-17.85 8.91-.06-3.19 1.2-6.11 2.52-8.93-6.13-.06-9.54 5.54-12.17 10.24-2.2-9.22-1.09-19.84 5.17-27.31 5.1-6.09 12.56-9.72 20.12-11.77ZM789.99 411.82c2.35-1.52 4.71-3.02 6.96-4.69.66 4.7 2.66 9.05 5.26 12.99-4.95-1.21-10.46-1.72-14.57-4.97-.49-1.68 1.3-2.5 2.35-3.33ZM790.04 431.05c5.71-.79 10.11-4.65 14.48-7.99 6.85 7.7 14.99 14.19 23.78 19.55-.03 4.39-.26 8.77-.6 13.15-9.34 3.76-19.94 3.91-29.51.93-3.2-1.02-2.3-5.25-1.1-7.52 2.38-2.96 5.42-5.39 7.25-8.8-6.14 2.83-13.34 2.04-18.94-1.61-1.49-1.19-4.76-2.15-3.55-4.61 1.34-3.19 5.44-2.24 8.19-3.1Z"/></g><g fill="#e4875b"><path d="M377.51 299.28c1.7-1.97 3.52-4.39 6.43-4.28 4.26-.51 7.31 3.36 7.79 7.24 2.64-.54 4.8-2.19 7.22-3.26 2.45-.87 4.82.43 6.92 1.56 1.84-2.93 5.21-5.23 8.79-4.08 3.2.7 4.74 3.78 5.41 6.7 3.83-1.26 7.76.32 9.81 3.73 4.35-.28 8.2 2.75 8.72 7.12 2.9-.53 6.44-.69 8.41 1.97 3.83 3.97.52 11.5-5.04 11.28-3.65.49-6.25-2.55-7.52-5.58-1.38 1.08-2.8 2.12-4.23 3.14 1.2 1.8 2.75 3.71 2.38 6.04-.29 4.63-5.91 7.8-10.03 5.6-2.71-1-3.68-3.87-4.3-6.41-2.84.82-5.7.23-8.08-1.48-1.76 2.19-4.05 4.58-7.15 4.21-3.63.05-6.23-3.05-7.01-6.35-1.83 2.02-4.11 4.19-7.1 3.72-3.28.09-5.26-2.77-6.66-5.31-2.78 1.4-5.85 1.21-8.75.37-.21 3 .05 6.7-2.84 8.58-2.67 2.31-6.38 1.64-9.16-.05-1.39 2.59-3.61 4.49-6.53 5.1.49 2.44.99 5.23-.75 7.33-1.61 2.63-4.89 2.77-7.55 3.54 2.18 2.7 3.7 6.53 1.74 9.8-1.14 2.81-4.25 3.66-6.85 4.5.8 3.11.16 6.21-1.63 8.83 2.32 1.77 5.07 3.81 5.04 7.07.5 4.04-2.8 6.99-6.24 8.32 2.89 3.14 3 7.78.57 11.23 2.49 1.63 4.79 4.3 4.13 7.52-.28 3.35-3.37 5.19-6.27 6.08 2.68 3.15 2.95 7.48.69 10.96 1.82 1.69 4.29 3.27 4.44 6.03.62 2.82-1 5.31-2.53 7.5 3.64 2.56 4.65 7.33 2.64 11.25 2.55 2.28 4.78 5.58 3.58 9.17-1.05 4.15-5.52 6.02-9.47 5.75-1.57 2.72-4.08 5.25-7.43 5.3-2.55.32-4.68-1.21-6.59-2.64-2.41 1.89-5.43 3.43-8.55 2.33-4.66-1.22-6.7-6.75-4.96-11.02-5.4-.43-9.25-5.96-7.3-11.15-4.03-2.38-5.52-7.34-3.32-11.5-3.45-1.27-6.95-3.96-6.79-8.03-.11-3.75 2.88-6.39 6.06-7.73-1.93-3.62-.93-7.52.1-11.22-3.27-3.25-3.54-8.33-.63-11.91-3.25-2.01-6.1-5.76-4.62-9.75.84-3.5 4.28-5.16 7.52-5.79-.32-2.38-.74-5.01.68-7.14 1.62-1.86 3.56-3.41 5.08-5.35-1.33-3.6-.52-7.37 2.1-10.14-2.66-2.14-5.01-5.41-3.94-9 .82-3.9 4.81-5.86 8.47-6.19-.69-3.91 1.36-7.24 3.93-9.96-2.24-4.28-1.07-9.54 3.14-12.09-.58-2.56-1.26-5.44.37-7.78 1.48-2.88 4.79-3.79 7.78-4.05-.5-3.34.25-7.18 3.35-9.04 3.75-2.6 8.76-1.03 11.47 2.32 3.13-3.67 9.07-3.88 11.99.18 1.65-1.27 3.25-2.93 5.46-3.07 2.2-.48 4.13.91 6.04 1.77 2.74-3.65 7.86-4.66 11.57-1.79m-62.08 144.79c-.41 1.36.09 1.9 1.5 1.63.41-1.39-.09-1.93-1.5-1.63Z"/><path d="M443.02 329.19c3.59-.23 5.76-3.33 7.61-6.03 1.98.95 4.27 1.85 5.23 4.02 1.38 2.09.54 4.61.03 6.83 2.3.81 5.1 1.47 6.14 3.97 1.33 2.1.57 4.55.05 6.77 3.72 2.72 4.06 7.9 1.13 11.34 2.69 2.28 3.78 5.64 2.91 9.09 2.68.7 5.64 1.92 6.48 4.85 1.48 3.65-1.06 7.22-4.13 9 2.33 3.15 2.39 7.38-.38 10.29 1.9 1.16 4.33 2.12 5.13 4.43.97 1.98.22 4.19-.08 6.24 3.02 1.14 6.32 3.37 6.02 7.06.25 3.34-2.58 5.62-5.28 6.93.68 1.94 1.83 3.97 1.18 6.08-.31 2.29-2.37 3.56-3.95 4.96 1.91 3.05 1.8 6.64-.28 9.57 2.38 1.37 4.73 3.46 4.68 6.46.26 3.93-3.29 6.82-6.91 7.33 1.25 3.58.14 8.13-3.69 9.54-2.89 1.52-5.92-.07-8.36-1.65-2.82 2.29-6.51 2.9-9.76 1.11 1.75-6.31 1.96-12.89 2.11-19.4.36-20.79-.09-41.59-.51-62.38 3.81-1.53-.7-4.86-.3-7.51-.7-12.76-5.85-24.97-13.74-34.93.56-2.97-.16-5.87-1.31-8.59 2.56 2.74 5.92 5.5 9.98 4.62ZM393.28 436.83c8.73-5 19.42-5.34 29.17-4.07 4.4 1.09 10.45 1.46 12.25 6.45-7.76-3.38-16.2-5.89-24.76-4.74-5.29.44-10.19 2.58-14.91 4.84-.44-.62-1.31-1.86-1.75-2.48Z"/></g><path fill="#ffd1ba" d="M566.64 304.43c4.45-4.41 10.49-7.71 16.93-7.38-1.96 2.51-5.19 5.07-4.32 8.66 1.34 2.05 4.41 2.28 6.29.84 3.03-2.31 4.74-6.03 8.08-7.98 3.72-2.22 8.56-1.41 12.14.71 3.52 1.77.41 7.33 4.21 8.82 5.6 1.59 12.65 1.26 16.56-3.66 1.71 10.36 4.57 20.48 7.6 30.52 2.94 9.7 6.67 19.21 8.38 29.25 4.54 24.03 1.74 48.6-1.14 72.65-1.21 11.82-2.83 23.9-.4 35.67-.81.8-1.61 1.61-2.4 2.42-3.32-3.32-7.15-6.04-10.97-8.72-2.67-1.78-7.08-1.25-8.61 1.79-.8 1.35-.52 2.99-.69 4.5-4.42.59-6.35 4.97-6.56 8.95-8.23-.87-17.83-3.2-21.96-11.19-4.94-10.22-3.61-21.98-3.92-32.98-10.55-6.82-20.96-14.83-27.34-25.87-2.62-4.35-3.17-9.51-2.78-14.49.87-23.74 3.21-47.39 5.34-71.04.68-7.37 2.08-14.87 5.56-21.47m1.55 22.63c-2.22.58-5.9 3.12-3.75 5.57 2.98.16 5.61-2.56 8.64-1.51 1.99.4 3.93 1.78 6.03 1.05.22-5.15-7.01-6.48-10.92-5.11m29.74 4.14c3.58 1.8 7.38-.71 11.12-.34 3.25-.26 5.85 2.6 9.05 2.24 1.3-2.97-2.33-4.55-4.51-5.47-5.13-1.94-12.68-1.81-15.66 3.57m-29.49 7.25c-3.26.79-4.97 5.17-2.72 7.8 2.24 3.54 8.45 2.78 9.48-1.38 1.36-3.93-3.02-7.63-6.76-6.42m38.95.14c-2.78.8-4.31 4.36-2.93 6.91 1.63 3.7 7.62 4.06 9.55.42 2.59-4-2.44-9.18-6.62-7.33m-25.98 29.76c-1.49 2.88-3.89 5.3-4.75 8.48 1.19 4.32 5.96 7.19 10.36 6.69 2.5-.67 5.28 1.99 7.43-.05l.64-2.81c-1.04.58-2.07 1.17-3.09 1.76-.59-.33-1.78-1-2.37-1.34-4.25 1.53-8.86-.3-11.19-4.1 2.1-3.71 4.79-7.11 6.38-11.1 2.43-5.72 3.55-11.87 4.53-17.97l-1.97-.54c-1.03 7.21-2.55 14.49-5.97 20.98m-4.01 25.84c-1.76 1.46-3 3.42-4.39 5.22.24 3.03.15 6.79 3.11 8.6 3.71 1.99 8.4 1.88 12.29.45 4.33-2.05 5.98-6.86 7.74-10.97-3.57.65-6.28-1.56-9.17-3.18-1.95.52-3.58 1.76-5.46 2.45-1.33-.93-2.2-3.02-4.12-2.57Z"/><path fill="#ffc9c9" d="M816.82 315.02c3.41-3.83 7.65-6.93 12.56-8.53-1.45 2.91-3.95 8.07.67 9.47 3.91-4.66 9.4-7.63 15.35-8.81 8.01 12.92 22.64 20.68 37.5 22.4 3.95.22 7.54 2.66 9.36 6.15 3.94 7.4 4.18 16.1 3.93 24.3-.91 15.29-4.53 30.65-11.96 44.13-1.7 3.25-4.25 5.91-6.35 8.88-1.39 2.05-.53 5.66 2.18 6.04 5.14 1.06 10.42.37 15.58-.14-2.17 4.25-5.34 8.07-9.64 10.29-2.54 1.57-6.11 2.18-7.38 5.21-1.26 2.31-.24 5.79 2.48 6.45 6.33 2.26 13.28 1.34 19.49-.9-1.52 2.4-3.42 4.51-5.22 6.69-2.15 2.4-1.33 6.81 1.73 8.06 2.27.52 4.63.24 6.95.3-1.22 10.44-3.15 22.1-11.56 29.34-9.83 8.1-23.29 8.88-35.47 9.27-7.93 0-16.86-.01-23.28-5.37-5.42-5.16-5.14-13.32-4.94-20.21.53-8.8 1.48-17.58 1.59-26.4-10.37-6.64-20.76-14.05-27.58-24.5-2.61-3.85-4.1-8.5-3.78-13.16.72-23.96 3.23-47.81 5.45-71.66 3.89-4.18 9.84-6.45 15.48-4.88 3.66.52 7.4 3.42 11.07 1.58 1.63-1.14.05-3.21-1.23-3.77-5.44-3.23-12.31-4.96-18.42-2.68-2.64.92-4.58 3-6.52 4.91 1.23-7.67 3.11-16.04 9.75-20.93-.39 2.11-1.24 4.22-.96 6.41.57 1.27 1.99 1.59 3.17 2.06m31.27 12.83c-1.77.34-2.86 1.81-3.9 3.12 4.37 4.42 10.57-.24 15.82 1.02 5.22.33 8.53 4.58 12.23 7.67.87-3.29-1.45-6.18-3.28-8.66-5.33-5.63-14.02-5.6-20.87-3.15m-32.65 10.79c-2.83 1.09-3.63 5.13-1.3 7.15 2.35 2.91 7.47.8 7.5-2.81.33-3.21-3.28-5.81-6.2-4.34m39.65 4.54c-2.79 1.28-3.23 5.65-.67 7.42 2.62 2.39 7.47.04 7.16-3.52.1-3.2-3.72-5.46-6.49-3.9m-21.46 7.05c-3.59 3.49-6.61 7.6-8.49 12.26-2.07 1.26-4.95 2.53-4.82 5.43 2.2 5.56 9.93 7.06 14.83 4.33 1.74-.78 2.05-3.29 0-3.91-2.1.42-3.74 1.77-5.02 3.41-3.2-.27-6.15-1.55-8.18-4.08 1.25-1.77 3.07-2.91 5.03-3.79 1.34-5.21 5.28-9.08 8.56-13.13l-1.91-.52m-18.45 35.87c-.85 2.93 1.32 5.68 2.33 8.33 1.61 3.2 3.12 7.96 7.43 8.05 4.61-.45 9.47-.86 13.56-3.25 3.28-2.08 5.08-5.64 7.08-8.83-3.38-.27-6.99-.09-9.97-1.94-3.54-1.76-7.3-4.81-11.45-3.04-2.9 1.22-6.06-.01-8.98.68m29.38.13c-.08.52-.23 1.55-.31 2.07.67.17 2.01.5 2.69.67-.04.83-.1 2.5-.14 3.33.44.06 1.31.18 1.74.25.22-1.17.4-2.34.54-3.51-.65-2-2.8-2.3-4.52-2.81Z"/><path fill="#ffdecd" d="M373.24 334.22c1.59-1.68 1.86-4.04 2.31-6.2 1.92-.07 3.84-.2 5.77-.4 2.9 4.74 9.41 5.94 13.89 2.69 1.93 2.31 4.46 4.5 7.64 4.52 2.99.24 5.64-1.43 7.8-3.33 1.97.51 3.99.91 6.04 1.08 1.28 3.53 4.45 6.39 8.32 6.54 3.33.43 6.19-1.65 8.41-3.88 7.23 9.26 11.75 20.58 12.67 32.31-7.14-2.34-15.22-2.71-22.21.33-1.61.41-3.09 3.28-.8 3.75 3.3.34 6.46-1.35 9.76-1.52 4.8-.72 9.29 1.42 13.39 3.62.66 23.12 1.15 46.26.49 69.38-.13 7.82-1.57 15.9-6.1 22.46-6.79 10.03-18.67 15.42-30.38 17.03.16 6.14.26 12.28.27 18.42-23.76 12.54-53.95 11.63-76.87-2.39-.15-9.52-.32-19.04-.38-28.56 1.69-1.18 3.22-2.57 4.47-4.21 4.61-.24 9.4-3.05 10.34-7.85.98-3.66-.8-7.13-3.09-9.85 1.12-3.81.4-7.91-2.31-10.86 2.85-4.5 1.97-10.43-2.07-13.88 1.14-3.06 1.05-6.28-.09-9.3 2.04-1.66 4.42-3.39 4.79-6.2.97-3.41-.84-6.68-3.15-9.05 1.25-3.19 1.16-6.62-.13-9.78 3.22-2.26 5.61-6.09 4.87-10.15-.24-2.77-2.29-4.78-4.02-6.75.8-2.15 1.16-4.41 1.28-6.68 5.89-1.84 8.98-8.82 6.13-14.38 4.75-1.23 8.02-5.83 7.2-10.75 1.75-1.1 3.4-2.35 4.91-3.76 3.7 1.36 8.21.69 10.85-2.4m4.16 33.08c-2.31 2.09-4.48 5.02-4.19 8.31 4.39-1.53 7.91-5.08 12.65-5.67 4.19-.83 8.28.75 12.33 1.59 1.4.4 2.84-.04 3.49-1.42-1.32-2.94-4.7-3.64-7.51-4.31-5.55-1.09-11.58-.87-16.77 1.5m13.03 12.23c-3.63.94-5.28 6.01-2.63 8.78 2.79 3.58 9.56 2.47 10.37-2.24 1.07-4.25-3.78-8.06-7.74-6.54m38.12.18c-2.9 1-4.35 4.72-2.97 7.44 1.8 4.2 8.84 4.51 10.67.18 2.62-4.51-3.26-9.91-7.7-7.62m-13.11 15.97c.27 5.46.79 10.95.07 16.4.55 3.39 3.38 6.28 3.1 9.9-.95 3.3-4.97 2.96-7.66 3.42-.03.5-.1 1.5-.13 2 2.98-.4 6.62-.27 8.69-2.87 1.36-1.47.98-3.6 1.07-5.4 1.13.84 2.21 1.76 2.98 2.98-1.06.96-1.63 2.16-1.72 3.59 1.08-.47 2.13-1.01 3.13-1.63 1.31-2.62-.91-6.11-3.68-6.45l1.53 1.56c-1.26-.06-2.52-.11-3.77-.15l1.31-.08c-.9-2.22-1.84-4.41-2.85-6.58.63-5.3.46-10.69-.19-15.98-.47-.17-1.41-.53-1.88-.71m-16.36 25.4c-.86 1.98.44 4.55 2.35 5.37 1.83.13 3.69.22 5.52 0 1.7-.46 3.62-2.66 1.59-4.04-2.68-1.54-4.68 1.1-6.32 2.83-.33-.6-.98-1.8-1.31-2.4-.14-2.62 2.98-3.56 4.73-4.83-.19-.45-.56-1.35-.75-1.8-2.17 1.26-4.88 2.32-5.81 4.87m6.44 9.64c-4.37.75-9 1.52-12.72 4.08-2.43 1.47-.86 5.02 1.27 5.93 1.65.96 3.33-.29 4.84-.92 10.12-5.2 22.56-4.46 32.66.43 1.48.86 3.41 1.16 4.65-.3.88-2.45-1.23-4.85-3.2-6.03-8.53-3.98-18.3-4.43-27.5-3.19m-.41 11.76c.06 1.93.12 4.18 1.88 5.42 3.56 2.54 8.49 3.06 12.55 1.47 2.72-1.13 4.11-3.89 4.78-6.6-5.98-2.82-13.15-2.95-19.21-.29Z"/><path fill="#acacac" d="M516.12 342.01c1.73 1.11 3.45 2.22 5.18 3.35-.3 1.24-.61 2.48-.86 3.74-.08.49-.24 1.47-.33 1.97 1.31 5.13 4.81 10.64 2.51 15.94-.32 2.78-2.06 4.73-4.58 5.76-.24 2.7-1.84 4.71-4.09 6.09-.27 2.64-1.5 4.92-3.76 6.37.06 3.16-1.91 5.38-4.45 6.94-.4 1.49-.8 2.99-1.28 4.47a14.37 14.37 0 0 0-1.35 12.52c1.82-3.5 3.4-7.83 8.06-8.01-1.2 5.56-2.67 11.06-4.07 16.57-.76.1-2.28.3-3.04.39-1.36 1.59-2.72 3.18-4.07 4.78-1.07-1.81-2.14-3.6-3.19-5.4-1.1-.29-2.2-.57-3.29-.84-1.04-5.76-2.21-11.5-3.18-17.27 2.04 1.34 4.28 2.5 5.93 4.36.96 1.68 1.15 3.68 1.71 5.53 1.17-3.43 1.07-7.08.4-10.6-.16-.21-.5-.63-.66-.84-2.95-3.8-7-7.15-7.33-12.31-1.61-1.56-3.1-3.23-4.51-4.96-2.13-.88-4.14-2.01-5.91-3.49-1.72-.67-3.44-1.31-5.16-1.96.47-3.01-.15-5.96-1.55-8.65 1.22 1.14 2.26 2.46 3.27 3.8 2.34-.12 4.34.93 6.04 2.47 2.6.48 4.45 2.24 5.82 4.4 2.99.92 4.92 3.13 5.3 6.26 2.68 2.15 3.79 5.31 3.81 8.69 1.39-.25 2.77-.55 4.13-.93-.18-3.44 1.5-6.22 4.19-8.21a40.18 40.18 0 0 1 3.67-6.14c.53-2.82 2.35-4.95 4.66-6.54 1.02-2.15 2.4-4.11 4.2-5.67.02-2.25.02-4.5.04-6.74-.36-.64-.71-1.28-1.05-1.92-1.41-1.81-1.26-4.05-.28-6.01-.27-2.65-.63-5.28-.93-7.91m2.1 11.32c-.81.95.42 2.98 1.64 2.34.79-.96-.43-2.99-1.64-2.34m1.96 6.98c-.76 1.38-.35 3.66 1.13 4.41 1.61-.66.46-4.52-1.13-4.41m-3.84 10.03 3.64-.48c0-.89.01-2.67.01-3.56-1.62.95-3.15 2.12-3.65 4.04m-40.21 3.38c1.34.57 2.74 1.01 4.13 1.49-.45-1.24-.84-2.49-1.17-3.75-1.04.68-2.53.95-2.96 2.26m35.47 2.83 3.32-.6c.83-1.13.59-2.62.75-3.91-1.94.91-3.99 2.06-4.07 4.51m-28.97-2.1c-.97 2.78 1.61 3.79 3.88 3.74-.75-1.77-2.09-3.07-3.88-3.74m25.35 8.71c1.96-.44 4.16-1.28 3.77-3.74-2.34-1.4-2.91 2.3-3.77 3.74m-19.47-3.29c-.68 1.31 1.11 3.43 2.5 2.74.81-1.34-1.1-3.51-2.5-2.74m15.26 10.56c2.7-.68 5.12-2.47 4.08-5.58-2.61.72-4.66 2.65-4.08 5.58m-11.14-5.3c.13 2.35.38 4.88 2.41 6.41.51-2.52-.21-4.94-2.41-6.41m4.45 8.4c-.97.99.66 2.76 1.75 1.94.96-1-.67-2.77-1.75-1.94m4.33 3.8c1.22-1.29 3.55-3.93.73-4.9-1.26 1.39-.83 3.21-.73 4.9m-8.02 7.05c-.82.91.28 3.04 1.52 2.38.82-.92-.29-3.05-1.52-2.38m13.75 1c-.91 1.21-.68 1.9.69 2.07.89-1.22.66-1.91-.69-2.07m-6.79 3.12c-.86 1.06-.96 2.86-.14 3.98 1.44-.16 1.62-3.82.14-3.98m-6.41.03c.34 2.56.89 5.1 2.06 7.43.64-1.66 1.25-3.32 1.85-4.98-1.3-.84-2.6-1.65-3.91-2.45m8.41 3.4c1.02 1.47 2.01 2.97 3.02 4.46.66-2.31 1.27-4.62 1.79-6.95-1.88.26-3.69.85-4.81 2.49m-2.15 6.26c.52.5.52.5 0 0Z"/><g fill="#f2e326"><path d="M520.11 351.07c.09-.5.25-1.48.33-1.97 9.1 6.98 12.16 18.54 18.86 27.42.63 2.72.82 5.57 1.94 8.17 3.04 7.66 9.38 13.86 10.7 22.22 1.32 7.17-1.81 14.11-5.18 20.25-1.43-2.17-2.65-4.69-5.03-5.97-5.41-3.16-12.19 1.06-17.54-2.44-6.36-3.94-7.85-11.94-12.58-17.31-1.87-2.27-4.62-3.47-7.15-4.8.48-1.48.88-2.98 1.28-4.47 2.54-1.56 4.51-3.78 4.45-6.94 2.26-1.45 3.49-3.73 3.76-6.37 2.25-1.38 3.85-3.39 4.09-6.09 2.52-1.03 4.26-2.98 4.58-5.76 2.3-5.3-1.2-10.81-2.51-15.94Z"/><path d="M517.33 355.93c.34.64.69 1.28 1.05 1.92-.02 2.24-.02 4.49-.04 6.74-1.8 1.56-3.18 3.52-4.2 5.67-2.31 1.59-4.13 3.72-4.66 6.54a40.18 40.18 0 0 0-3.67 6.14c-2.69 1.99-4.37 4.77-4.19 8.21-1.36.38-2.74.68-4.13.93-.02-3.38-1.13-6.54-3.81-8.69-.38-3.13-2.31-5.34-5.3-6.26-1.37-2.16-3.22-3.92-5.82-4.4-1.7-1.54-3.7-2.59-6.04-2.47-1.01-1.34-2.05-2.66-3.27-3.8-1.88-1.38-4.2-2.27-5.48-4.33 3.32.93 6.39 2.52 9.53 3.9 7.49 3.39 15.51 5.68 23.7 6.49 4.43.29 9.75.34 12.83-3.45 2.71-3.84 3.73-8.48 3.5-13.14ZM507.98 383.16c.86-1.44 1.43-5.14 3.77-3.74.39 2.46-1.81 3.3-3.77 3.74ZM474.08 425.29c4.12.56 8.34 1.39 11.89 3.68 8.51 5.27 14.02 14.22 17.45 23.42 2.1 5.16.46 10.81-1.19 15.85-3.16 9.31-10.65 17.28-20.24 19.98-3.74 1.2-8.48 1.26-11.27-1.93-5.51-6.33-4.88-16.05-11.03-21.97-4.15-3.64-9.99-1.86-14.94-1.8.42-1.07.84-2.13 1.27-3.18 3.46 1.54 7.24 1.38 10.56-.45 2.85 1.37 6.21 2.38 9.23.83 3.92-1.49 5.64-5.84 5.42-9.79 3.58-1.47 6.48-4.82 6.31-8.85.15-2.95-1.81-5.25-3.71-7.22.9-2.8.77-5.72.25-8.57Z"/></g><path fill="#c6c179" d="M518.22 353.33c1.21-.65 2.43 1.38 1.64 2.34-1.22.64-2.45-1.39-1.64-2.34Z"/><path fill="#d8d054" d="M520.18 360.31c1.59-.11 2.74 3.75 1.13 4.41-1.48-.75-1.89-3.03-1.13-4.41Z"/><path fill="#ecdf30" d="M516.34 370.34c.5-1.92 2.03-3.09 3.65-4.04 0 .89-.01 2.67-.01 3.56l-3.64.48Z"/><path fill="#dfd549" d="M476.13 373.72c.43-1.31 1.92-1.58 2.96-2.26.33 1.26.72 2.51 1.17 3.75-1.39-.48-2.79-.92-4.13-1.49Z"/><path fill="#e8db38" d="M511.6 376.55c.08-2.45 2.13-3.6 4.07-4.51-.16 1.29.08 2.78-.75 3.91l-3.32.6Z"/><g fill="#f1e325"><path d="M474.8 375.11c1.72.65 3.44 1.29 5.16 1.96 1.77 1.48 3.78 2.61 5.91 3.49 1.41 1.73 2.9 3.4 4.51 4.96.33 5.16 4.38 8.51 7.33 12.31-8.62 1.44-16.99-2.02-23.73-7.16-.91-.65-1.8-1.32-2.68-1.98 1.12-2.94 1.26-6.09.03-9.02 1.25-1.44 2.39-2.98 3.47-4.56ZM501.41 397.33c-.1-1.69-.53-3.51.73-4.9 2.82.97.49 3.61-.73 4.9Z"/></g><path fill="#e0d644" d="M482.63 374.45c1.79.67 3.13 1.97 3.88 3.74-2.27.05-4.85-.96-3.88-3.74Z"/><path fill="#e2d842" d="M488.51 379.87c1.4-.77 3.31 1.4 2.5 2.74-1.39.69-3.18-1.43-2.5-2.74Z"/><path fill="#e8dc37" d="M503.77 390.43c-.58-2.93 1.47-4.86 4.08-5.58 1.04 3.11-1.38 4.9-4.08 5.58Z"/><path fill="#e8dc35" d="M492.63 385.13c2.2 1.47 2.92 3.89 2.41 6.41-2.03-1.53-2.28-4.06-2.41-6.41Z"/><g fill="#fed8ff"><path d="M816.91 387.75c2.65.44 5.38.47 7.97-.42 3.05-1.32 5.92.79 8.51 2.16-5.32-.12-10.65-.44-15.95.1-.14-.46-.4-1.38-.53-1.84ZM820.73 396.95c6.62-.08 13.28-.44 19.74-2.03-3.82 4.47-10.02 5.01-15.47 5.56-2.22.17-3.07-2.16-4.27-3.53Z"/></g><path fill="#c5c07a" d="M497.08 393.53c1.08-.83 2.71.94 1.75 1.94-1.09.82-2.72-.95-1.75-1.94Z"/><path fill="#ff5756" d="M575.15 399.64c.95-1.1 1.91-2.19 2.87-3.28 1 .78 1.7 2.19 3.04 2.43 2.22-.09 4.06-1.51 5.99-2.45 1.53 1.14 3.08 2.25 4.63 3.39-5.23 2.18-11.55 3.33-16.53-.09Z"/><path fill="#ff5656" d="M574.81 402.28c5.75 2.31 12.17 1.86 17.7-.82-1.71 2.29-3.36 5.23-6.47 5.71-4.25.84-10.44.53-11.23-4.89Z"/><path fill="#547faf" d="M493.39 404.38c1.23-.67 2.34 1.46 1.52 2.38-1.24.66-2.34-1.47-1.52-2.38Z"/><path fill="#5982af" d="M507.14 405.38c1.35.16 1.58.85.69 2.07-1.37-.17-1.6-.86-.69-2.07Z"/><path fill="#5680af" d="M500.35 408.5c1.48.16 1.3 3.82-.14 3.98-.82-1.12-.72-2.92.14-3.98Z"/><path fill="#537fb0" d="M493.94 408.53c1.31.8 2.61 1.61 3.91 2.45-.6 1.66-1.21 3.32-1.85 4.98-1.17-2.33-1.72-4.87-2.06-7.43Z"/><path fill="#4c7bb0" d="M502.35 411.93c1.12-1.64 2.93-2.23 4.81-2.49-.52 2.33-1.13 4.64-1.79 6.95-1.01-1.49-2-2.99-3.02-4.46Z"/><path fill="#4778b0" d="M500.2 418.19c.52.5.52.5 0 0Z"/><path fill="#3f3f3f" d="M409.23 443.28c.53.48.53.48 0 0Z"/><path fill="#352015" d="M315.43 444.07c1.41-.3 1.91.24 1.5 1.63-1.41.27-1.91-.27-1.5-1.63Z"/><path fill="#fcbfa2" d="M648.43 470.51c3.42-5.22 7.36-10.96 13.69-12.77 2.54-.9 5.12.02 7.41 1.18-3.45 7.14-10.84 13.44-9.31 22.09 1.85 6.72.64 13.83-2.03 20.15 4.14 4.26 8.05 8.74 12.27 12.93-.6 7.83-2.62 16.25-8.42 21.91-2.8 2.84-6.83 3.77-10.67 3.98-3.88-4.76-7.97-9.33-11.92-14.02-11.44-.2-21.42-7.36-28.63-15.73-3.38-4.16-7.28-8.67-7.17-14.36 5.46-2.2 11.29.53 15.88 3.51 3.5 2.23 5.93 6.02 5.63 10.3-4.28-.61-7.3-3.84-10.28-6.65-.8-.95-1.74-.98-2.82-.11 3.36 3.54 6.95 7.64 11.94 8.68 3.78-.14 2.92-4.63 2.57-7.17 2.03-.22 4.52-.02 5.9-1.85 1.6-1.88.83-4.51.75-6.73 1.4-.76 2.71-1.68 3.86-2.8.43 1.73 1.37 2.35 2.8 1.88-.73-2.76-1.81-5.41-2.54-8.16 1.92-.82 4.47-1.43 5-3.8.51-2.5-1.31-4.55-2.37-6.62 2.3-2.6 5.15-4.7 8.46-5.84Z"/><g fill="#fbbfa2"><path d="M620.74 468.72c1.46-1.67 4.3-1.91 6.04-.53 4.29 3.01 8.7 6.05 12 10.2.99 1.5 2.45 3.39 1.19 5.17-1.26.41-2.54.78-3.82 1.09-4.43-4.8-10.36-7.78-15.7-11.41.02-1.51-.42-3.13.29-4.52ZM613.65 481.42c.63-2.25.66-5.67 3.45-6.41 1.67-.66 3.18.57 4.53 1.38 4.56 3.18 9.5 5.89 13.43 9.9.22 2.48 1.24 8.24-3.03 6.9-5.62-4.59-11.06-10.05-18.38-11.77Z"/></g><g fill="#ffc700"><path d="M585.89 466.18c.94 2.62 2.14 5.16 3.58 7.55-1.31 2.62-2.51 5.29-3.8 7.92-2.46-4.89 1.14-10.27.22-15.47ZM587.29 483.27c1.1-2.61 2.28-5.19 3.53-7.73 2.63 2.22 5.55 4.07 8.73 5.41-1.21 2.92-2.3 5.89-3.18 8.92-3.52-1.46-6.68-3.64-9.08-6.6Z"/><path d="M583.55 481.68c2.45 3.39 5.21 6.74 9.05 8.6 4.97 2.67 10.81 2.18 16.24 1.86-2.65.94-6.82 1.33-7.05 4.93-.18 4.29 2.57 7.93 4.91 11.28 7.61 10.22 18.76 18.92 31.91 19.75 5.06 4.85 6.91 11.79 10.8 17.45 9.04 14.27 21.07 26.28 33.2 37.91.78 15.5 1.26 31.02 1.8 46.54H550.5c1.29-44.19.68-88.53 5.4-132.54 5.14.1 10.5-.01 15.25-2.24 5.96-2.4 10.04-7.74 12.4-13.54Z"/><path d="M598.41 490.24c.81-2.95 1.82-5.83 3.05-8.63 2.62.64 5.27 1.19 7.95 1.53-1.06 2.27-1.42 4.75-1.53 7.24-3.16.01-6.32-.02-9.47-.14ZM662.98 490.89c5.48.8 10.78 2.44 15.91 4.53.3 4.78.34 9.58.5 14.37-4.33-1.93-8.8-3.52-13.41-4.66-2.57-.43-3.83-2.97-5.4-4.75 1.12-3.08 1.87-6.27 2.4-9.49ZM681.05 496.74c6.43 3.84 9.98 11.38 8.69 18.8-2.76-1.65-5.56-3.21-8.34-4.8-.07-4.67-.3-9.34-.35-14ZM530.5 630c8.22-39.66 14.69-79.66 22.04-119.48-3.07 39.75-2.99 79.65-4.05 119.48H530.5ZM703.29 524.91c5.76-3.44 10.94-7.95 14.48-13.7 1.87 10.28 3.95 20.52 5.69 30.82-6.54-5.91-13.18-11.73-20.17-17.12ZM684.71 585.31c11.2 10.2 22.95 19.79 35.02 28.95 5.28 3.8 9.96 8.56 16.11 11 .19 1.57.39 3.15.6 4.74H686.4c-.48-14.9-.98-29.8-1.69-44.69Z"/></g><g fill="#6a40ac"><path d="M295.07 502.87c9.71-11.49 22.18-20.7 36.26-26.08.31 7.66-.29 15.4.62 23.01 23.78 15.26 55.81 15.93 80.55 2.45.03-5.26-.09-10.5-.13-15.75 24.06 16.39 38.87 45.37 37.69 74.51-1.37 23-3.09 45.99-4.56 68.99H325.46c.97-32.33 2.05-64.65 3.04-96.98.44-10.76-5.64-21.42-15.09-26.56-5.52-3.23-12.05-4.03-18.34-3.59Z"/><path d="M430.04 499.44c28.19 13.24 56.23 26.81 84.38 40.12 1.72.9 3.71.57 5.58.53 8.48-.6 16.95-1.15 25.43-1.7-3.16 18.52-6.55 36.99-9.91 55.47-10.55.26-21.59 3.25-31.72-.97-.29.45-.89 1.36-1.19 1.82-16.94-8.35-34.12-16.21-51.08-24.52 2.16-19.15-1.34-39.03-10.99-55.8-2.96-5.34-6.7-10.19-10.5-14.95ZM284.82 508.83c6.27-3.94 14.18-5.07 21.32-3.15 8.38 2.13 15.46 8.61 18.56 16.64 2.3 5.62 1.82 11.79 1.58 17.71-.95 29.99-1.93 59.98-2.83 89.97h-54.79c1.03-32.93 2.06-65.85 3.12-98.78.24-9.01 5.25-17.8 13.04-22.39Z"/></g><path fill="#fbbfa1" d="M610.85 484.9c.81-1.46 2.79-1.33 4.15-.86 5.33 1.74 9.62 5.57 13.81 9.15 2.46 1.91 3.73 5.75 1.97 8.51-2.12.83-5.03 1.06-6.58-.93-3.67-3.95-8.65-6.36-13.81-7.69-.22-2.71-1.04-5.71.46-8.18Z"/><g fill="#179c49"><path d="M802.74 530.71c5.51-5.86 14.29-8.24 22.06-6.41 7.72 2.71 13.95 8.59 18.7 15.11 10.07-4.6 21.98-6.2 32.6-2.61 7.08 2.37 12.32 8.94 13.25 16.33 1.19 5.27-1.33 10.58-4.85 14.38-5.37 5.71-12.26 9.82-19.52 12.65-4.96 2-10.38 2.43-15.32 4.47-4.53 1.75-8.81 4.11-12.62 7.13-5.31-7.03-12.52-12.32-19.96-16.9-4.9-3.05-10.55-5.15-14.41-9.61-8.73-9.3-8.72-25.29.07-34.54m4.68 7.29c-1.03 6.99-2.07 13.98-3.16 20.96 10.21 1.54 20.42 3.09 30.63 4.59 2.82-3.18 5.78-6.24 8.71-9.32-2.17-3.74-3.34-8.16-5.92-11.58-10.04-1.78-20.19-3.04-30.26-4.65m38.48 5.69c-1.01 7-2.11 13.98-3.11 20.99 10.16 1.41 20.27 3.07 30.43 4.49 1.14-6.96 2.16-13.94 3.17-20.93-10.17-1.51-20.32-3.07-30.49-4.55Z"/><path d="M854.13 551.03c.63.09 1.9.28 2.53.37-.49 3.07-.94 6.14-1.35 9.23-.58.03-1.74.11-2.32.14.16-3.27.5-6.53 1.14-9.74Z"/></g><path fill="#1ca550" d="M726.68 545.12c2.3-.46 4.6-.93 6.92-1.4-.15 1.65-.68 3.33-.29 4.99.89 1.5 2.08 2.76 3.15 4.17-4.38-.74-6.66-5.05-9.78-7.76Z"/><path fill="#179c4b" d="M816.37 545.44c2.13-.65 4.08.72 5.95 1.54-.39.47-1.15 1.42-1.54 1.89-1.65-.69-4.7-2.02-5.17.67-.89 2.36 1.71 3.3 3.44 3.92a35.27 35.27 0 0 1-2-4.16c1.65.15 3.3.31 4.96.5-.25 1.53-.48 3.08-.7 4.63-2.31.55-5.17 1.34-7.04-.63-2.81-2.37-1.42-7.53 2.1-8.36Z"/><path fill="#189c49" d="M827.29 547.43c3.43-1.65 8.05 1.69 6.97 5.54-.46 3.6-5.35 5.34-8 2.91-2.98-2.04-2.36-7.2 1.03-8.45m.2 2.9c-.6 1.2-.79 2.83.46 3.71 1.62 1.57 4.56-.58 3.64-2.65-.12-2.04-2.91-2.4-4.1-1.06Z"/><path fill="#169b48" d="M859.05 551.75c2.71.4 5.43.8 8.15 1.24-.23 1.87-1.75 2.25-3.37 2.38-.35 2.21-.68 4.42-.98 6.63-.66-.1-1.97-.32-2.62-.43.37-2.29.75-4.57 1.15-6.84-.68-.18-2.02-.54-2.69-.72l.36-2.26Z"/><path fill="#116431" d="M774.26 596.96c1.29.54 1.3 1.23.05 2.09-1.31-.56-1.32-1.25-.05-2.09Z"/></svg>